<?xml version="1.0" standalone="no"?>
<!DOCTYPE svg PUBLIC "-//W3C//DTD SVG 20010904//EN"
 "http://www.w3.org/TR/2001/REC-SVG-20010904/DTD/svg10.dtd">
<svg version="1.0" xmlns="http://www.w3.org/2000/svg"
 width="1024.000000pt" height="1024.000000pt" viewBox="0 0 1024.000000 1024.000000"
 preserveAspectRatio="xMidYMid meet">
<metadata>
Created by potrace 1.11, written by Peter Selinger 2001-2013
</metadata>
<g transform="translate(0.000000,1024.000000) scale(0.100000,-0.100000)"
fill="#000000" stroke="none">
<path d="M4820 10204 c-928 -74 -1739 -348 -2480 -839 -85 -56 -179 -121 -209
-145 -52 -42 -53 -43 -48 -86 2 -25 16 -61 31 -82 27 -40 56 -121 56 -161 0
-78 71 -247 94 -224 4 4 4 0 1 -8 -7 -18 32 -72 46 -64 5 4 9 2 9 -4 0 -15 51
-66 62 -63 5 1 7 -1 4 -6 -9 -15 24 -52 47 -52 16 0 18 -3 8 -9 -8 -5 -9 -11
-3 -15 18 -11 26 16 8 29 -15 11 -15 13 5 18 12 3 31 1 41 -4 10 -5 23 -7 28
-4 5 3 12 0 16 -6 4 -7 3 -9 -4 -5 -6 3 -13 2 -16 -3 -4 -5 -2 -12 4 -16 6 -4
7 -11 4 -17 -5 -7 -1 -9 9 -5 25 9 22 -20 -3 -33 -24 -13 -17 -32 7 -23 10 4
14 2 10 -4 -11 -17 16 -44 33 -33 12 8 11 11 -9 17 -23 6 -23 7 -6 20 11 7 13
13 7 13 -7 0 -12 6 -12 13 1 6 14 -5 31 -25 17 -21 37 -38 44 -38 8 0 13 -9
12 -19 0 -11 -5 -17 -11 -14 -5 3 -6 1 -2 -5 9 -15 12 -15 30 4 10 10 16 11
16 4 0 -8 9 -10 28 -6 l27 7 -24 -17 c-19 -14 -25 -14 -32 -3 -6 10 -8 8 -7
-7 2 -22 27 -27 41 -9 4 6 7 1 5 -10 -2 -11 -7 -23 -13 -27 -6 -4 -2 -8 8 -8
9 0 17 5 17 12 0 19 29 -25 30 -44 0 -12 -5 -16 -17 -12 -15 5 -15 4 -3 -5 11
-7 20 -5 34 7 14 13 17 13 11 2 -8 -13 -7 -13 8 -1 11 9 17 10 17 2 0 -6 7
-11 15 -11 8 0 15 -8 16 -17 0 -11 3 -13 6 -5 8 20 22 4 16 -19 -4 -16 -8 -17
-14 -7 -7 10 -12 10 -26 -4 -11 -11 -13 -18 -5 -18 7 0 12 5 12 11 0 5 5 7 10
4 8 -5 8 -11 0 -20 -9 -10 -6 -15 12 -20 60 -17 78 -28 73 -44 -3 -12 1 -17
17 -18 14 -1 18 1 11 5 -9 6 -7 11 7 19 14 10 21 9 31 -3 10 -12 9 -13 -5 -8
-9 3 -16 1 -16 -5 0 -6 4 -11 9 -11 4 0 7 -11 6 -25 -2 -15 1 -23 7 -19 6 4
14 0 19 -7 6 -10 9 -8 9 9 0 16 -4 21 -12 16 -10 -5 -10 -4 -1 6 16 18 26 8
27 -28 1 -22 5 -28 16 -24 13 5 13 4 0 -14 -14 -18 -14 -18 4 -4 18 14 18 13
12 -10 l-6 -25 12 23 c7 14 8 26 2 30 -5 4 -16 20 -24 35 -11 23 -12 30 -1 36
10 6 9 10 -3 14 -9 4 -16 1 -16 -6 0 -7 -5 -4 -11 6 -11 18 -5 37 13 37 6 0 6
-6 -2 -15 -11 -13 -10 -14 3 -10 8 4 18 2 21 -3 3 -6 15 -8 26 -5 11 3 20 0
20 -6 0 -5 -6 -8 -14 -5 -16 6 -41 -32 -27 -40 5 -4 11 -1 13 6 3 9 6 9 12 0
4 -7 2 -12 -4 -12 -8 0 -8 -6 0 -20 12 -22 34 -28 28 -8 -3 7 1 19 8 26 7 7
11 20 8 30 -5 13 -4 14 4 3 6 -8 6 -25 2 -41 -5 -18 -4 -33 3 -40 9 -10 9 -11
0 -6 -7 4 -13 2 -13 -3 0 -6 3 -11 8 -11 18 1 28 18 27 48 0 18 3 36 7 38 5 3
8 2 7 -3 -4 -25 3 -43 19 -44 14 0 14 -2 -3 -9 -11 -5 -15 -9 -10 -9 6 -1 4
-5 -4 -10 -18 -12 -23 -40 -10 -60 8 -12 9 -8 6 15 -2 24 0 31 10 27 8 -3 11
-8 9 -11 -10 -9 16 -32 36 -32 10 0 23 -10 28 -22 5 -13 9 -17 9 -10 1 7 6 10
11 7 10 -6 7 -43 -5 -67 -4 -7 -1 -6 7 3 7 9 20 14 28 12 9 -3 8 0 -3 7 -18
11 -18 12 0 25 25 18 33 10 26 -28 -3 -18 -2 -29 2 -25 4 4 14 0 21 -10 7 -9
14 -12 14 -6 0 6 -7 17 -16 25 -14 11 -13 14 8 25 13 8 18 13 12 14 -17 0 -25
27 -8 27 7 0 11 -4 8 -8 -2 -4 0 -10 5 -14 6 -3 7 -13 4 -22 -4 -11 -3 -14 5
-9 7 4 12 15 12 24 0 10 3 13 8 7 4 -5 14 -10 22 -10 8 0 15 -4 15 -10 0 -5 4
-16 8 -22 5 -8 4 -13 -2 -13 -6 0 -11 5 -11 10 0 19 -29 22 -45 6 -10 -9 -12
-16 -5 -16 7 0 5 -7 -5 -16 -15 -15 -15 -18 1 -35 9 -11 21 -19 26 -19 5 0 2
7 -6 16 -9 8 -16 20 -16 27 0 6 6 3 13 -7 12 -17 14 -17 20 -3 4 10 2 16 -5
14 -13 -3 -20 31 -7 39 5 3 9 -2 9 -10 0 -9 7 -16 15 -16 16 0 16 -20 1 -31
-10 -8 1 -29 15 -29 6 0 8 4 5 9 -4 5 -2 20 3 33 9 22 16 11 12 -20 -1 -7 2
-11 6 -10 4 2 8 -1 8 -7 0 -5 -4 -10 -10 -11 -5 0 -19 -2 -30 -3 -12 -2 -15
-5 -7 -8 9 -3 10 -9 3 -17 -8 -9 -6 -13 4 -13 8 0 15 9 15 19 0 11 5 16 11 13
6 -4 8 -14 5 -22 -3 -8 -1 -11 4 -8 6 3 10 1 10 -6 0 -8 5 -7 18 3 9 9 23 14
30 12 7 -1 8 0 2 3 -8 3 -7 9 1 19 18 22 27 8 22 -34 -4 -34 -1 -40 24 -51 25
-11 29 -11 42 8 13 21 38 31 26 11 -3 -6 1 -13 9 -16 9 -3 16 -11 16 -17 0 -5
-8 -3 -18 6 -16 15 -19 15 -30 -3 -7 -11 -8 -20 -3 -20 5 0 11 6 14 13 3 9 7
9 19 -1 17 -14 53 -13 78 3 13 8 13 7 1 -8 -8 -10 -16 -15 -19 -12 -6 6 -32
-43 -32 -62 0 -8 -5 -11 -12 -7 -6 4 -8 3 -5 -4 5 -7 14 -7 31 1 13 7 22 15
19 19 -2 5 -10 5 -16 1 -7 -4 -6 0 2 10 14 18 26 23 16 8 -3 -5 -1 -12 4 -15
5 -4 12 -2 16 3 3 6 13 7 22 4 11 -4 14 -3 9 5 -4 7 -14 12 -22 12 -17 0 -19
16 -2 26 7 4 8 3 4 -4 -5 -8 0 -12 13 -12 27 0 21 -34 -7 -38 -18 -3 -21 -8
-16 -30 9 -34 14 -41 14 -16 0 26 36 49 44 29 3 -8 0 -15 -7 -15 -8 0 -6 -4 3
-10 8 -5 20 -10 25 -10 6 0 3 4 -5 10 -12 8 -12 10 3 16 9 3 17 10 17 16 0 5
-4 7 -9 4 -5 -3 -14 1 -21 9 -11 14 -10 14 12 6 14 -5 29 -7 33 -3 3 4 4 -7 1
-23 -3 -17 -1 -32 7 -37 8 -5 7 -8 -5 -8 -10 0 -18 -4 -18 -10 0 -5 5 -10 11
-10 5 0 7 -5 4 -10 -5 -8 -12 -7 -23 2 -15 11 -15 11 -5 -3 7 -9 9 -19 5 -23
-4 -4 -2 -7 3 -5 18 4 66 -21 60 -31 -3 -5 -1 -10 4 -10 6 0 11 5 11 11 0 5 4
8 10 4 5 -3 8 -11 6 -18 -1 -7 -1 -9 1 -4 3 4 9 5 13 2 5 -3 12 0 16 7 4 7 4
10 -1 6 -9 -8 -40 20 -31 29 3 3 12 0 21 -7 18 -15 20 1 3 18 -9 9 -8 12 6 12
9 0 15 -4 11 -9 -9 -16 15 -24 30 -11 10 8 15 9 15 2 0 -6 -9 -14 -20 -17 -22
-7 -27 -30 -8 -41 7 -5 9 -2 5 9 -4 11 0 15 12 14 13 -1 17 -6 13 -17 -5 -13
-3 -13 11 -1 13 10 17 10 17 1 0 -7 7 -10 17 -6 10 4 14 4 10 0 -4 -4 -3 -12
2 -18 6 -7 3 -17 -7 -25 -14 -13 -15 -13 -10 6 4 14 0 24 -9 27 -21 8 -23 8
-23 -9 0 -8 5 -15 10 -15 7 0 7 -6 0 -19 -7 -13 -7 -22 0 -26 5 -3 10 -1 10 4
0 6 9 11 20 11 11 0 20 -5 20 -11 0 -5 -4 -8 -9 -5 -5 3 -15 -2 -22 -12 -13
-15 -12 -16 4 -3 15 12 17 11 19 -5 0 -11 1 -26 0 -34 0 -11 3 -10 14 4 11 16
11 22 1 28 -6 4 -7 8 -2 8 6 0 17 -5 25 -10 12 -8 12 -10 1 -10 -10 0 -11 -3
-3 -13 13 -15 6 -97 -14 -182 -9 -33 -17 -71 -20 -85 -7 -32 -50 -115 -80
-157 -13 -17 -24 -35 -24 -40 0 -9 64 -50 560 -356 1028 -635 2119 -1263 3095
-1781 220 -117 1013 -516 1025 -516 4 0 17 24 31 52 35 75 109 186 160 238 24
25 105 95 179 156 170 140 550 502 697 665 271 300 428 558 449 740 14 127
-121 653 -266 1029 -335 871 -934 1664 -1675 2220 -678 508 -1438 833 -2255
966 -270 44 -422 56 -760 58 -184 2 -355 2 -380 0z m-2476 -1515 c-3 -5 3 -9
12 -9 20 0 11 -13 -11 -16 -8 -1 -15 3 -16 9 0 7 -2 20 -4 30 -3 15 -1 16 11
6 7 -6 11 -15 8 -20z m16 -50 c0 -6 6 -9 13 -6 16 6 41 -20 27 -28 -6 -3 -10
-2 -10 3 0 5 -10 13 -22 17 -62 21 -65 23 -35 24 15 1 27 -4 27 -10z m20 -39
c0 -5 -4 -10 -9 -10 -6 0 -13 5 -16 10 -3 6 1 10 9 10 9 0 16 -4 16 -10z m25
-30 c3 -5 12 -7 19 -4 7 3 19 -2 26 -11 8 -10 9 -15 1 -15 -6 0 -11 5 -11 10
0 6 -4 10 -9 10 -5 0 -7 -8 -4 -19 6 -22 -12 -37 -23 -20 -4 8 -3 9 4 5 7 -4
12 -3 12 2 0 6 -7 13 -16 16 -8 3 -13 10 -9 15 3 6 -3 8 -15 6 -11 -2 -22 -1
-24 3 -3 4 6 9 19 10 13 1 27 -3 30 -8z m70 -50 c3 -5 -1 -10 -10 -10 -9 0
-13 5 -10 10 3 6 8 10 10 10 2 0 7 -4 10 -10z m195 -141 c0 -15 -18 -19 -23
-6 -3 8 1 14 9 14 8 0 14 -4 14 -8z m85 -69 c3 -5 1 -10 -4 -10 -6 0 -11 5
-11 10 0 6 2 10 4 10 3 0 8 -4 11 -10z m46 -40 c9 13 10 13 6 0 -2 -8 -15 -15
-29 -15 -20 -1 -24 3 -20 19 5 19 5 19 19 0 12 -16 15 -17 24 -4z m26 -72 c-3
-8 -6 -5 -6 6 -1 11 2 17 5 13 3 -3 4 -12 1 -19z m63 -28 c0 -5 -2 -10 -4 -10
-3 0 -8 5 -11 10 -3 6 -1 10 4 10 6 0 11 -4 11 -10z m45 0 c-3 -5 -11 -10 -16
-10 -6 0 -7 5 -4 10 3 6 11 10 16 10 6 0 7 -4 4 -10z m73 -64 c14 5 14 4 3 -4
-20 -14 -41 -4 -33 16 6 16 7 16 10 0 2 -11 9 -15 20 -12z m-38 -15 c19 -13
28 -21 20 -18 -8 2 -23 -2 -32 -11 -11 -9 -18 -10 -18 -4 0 6 5 14 10 17 8 5
7 11 -1 21 -6 7 -16 11 -21 8 -6 -4 -6 -9 2 -14 7 -4 1 -7 -15 -7 -16 0 -22 3
-15 7 8 5 7 9 -4 13 -8 3 -18 2 -21 -4 -4 -5 -11 -6 -17 -3 -16 10 9 21 45 19
18 -1 48 -12 67 -24z m290 -196 c8 5 11 3 8 -6 -7 -20 21 -49 40 -43 12 4 11
2 -2 -7 -15 -9 -21 -9 -24 -1 -2 7 -10 12 -17 12 -7 0 -15 9 -18 19 -3 12 -12
19 -23 17 -11 -2 -13 -1 -6 1 6 3 12 10 12 16 0 8 3 7 9 -2 5 -8 14 -10 21 -6z
m30 -15 c0 -5 -5 -10 -11 -10 -5 0 -7 5 -4 10 3 6 8 10 11 10 2 0 4 -4 4 -10z
m220 -158 c-7 -3 -7 -8 1 -18 6 -8 8 -14 4 -14 -13 0 -43 44 -38 56 3 9 10 8
24 -4 11 -9 15 -18 9 -20z m95 -130 c-2 -2 -12 1 -23 7 -16 9 -21 31 -13 61 0
3 9 -11 20 -30 10 -19 17 -36 16 -38z m50 48 c-3 -5 -12 -10 -18 -10 -7 0 -6
4 3 10 19 12 23 12 15 0z m277 -165 c3 0 9 -3 13 -7 4 -3 0 -5 -9 -4 -9 1 -22
8 -29 16 -10 10 -9 11 3 4 8 -5 18 -9 22 -9z m-46 -49 c-3 -14 -2 -28 4 -31 5
-3 10 -12 10 -20 0 -11 -5 -11 -30 1 -31 16 -39 26 -17 22 6 -2 13 4 13 12 1
8 2 21 3 28 0 6 6 12 12 12 7 0 9 -10 5 -24z m38 -17 c-18 -20 -43 -11 -29 11
6 9 10 9 16 -1 7 -11 9 -10 9 4 0 10 5 15 11 12 7 -5 4 -14 -7 -26z"/>
<path d="M1566 8568 c-86 -8 -189 -39 -221 -66 -26 -21 -213 -252 -288 -354
-427 -582 -720 -1231 -871 -1928 -35 -163 -57 -282 -61 -330 -2 -14 -5 -36 -8
-50 -7 -29 -18 -121 -23 -200 -2 -30 -6 -69 -8 -86 -15 -104 -20 -428 -10
-644 4 -85 7 -167 7 -182 0 -16 3 -28 6 -28 3 0 6 -26 7 -58 0 -31 4 -84 8
-117 4 -33 10 -82 13 -110 3 -27 7 -53 9 -56 4 -6 14 -63 19 -104 1 -11 3 -20
5 -20 1 0 3 -11 5 -25 4 -31 14 -79 21 -101 2 -9 7 -38 9 -64 3 -26 9 -54 14
-63 5 -10 12 -39 16 -67 5 -27 14 -65 22 -84 15 -36 21 -55 29 -106 3 -16 17
-66 31 -110 14 -44 27 -86 29 -93 2 -7 8 -11 12 -8 5 3 6 -8 4 -25 -3 -18 0
-29 7 -29 7 0 11 -6 10 -12 -1 -7 2 -24 8 -38 6 -14 30 -78 53 -142 23 -65 46
-118 50 -118 5 0 8 -8 8 -18 -1 -9 24 -69 55 -133 31 -64 57 -121 57 -127 0
-7 4 -12 8 -12 4 0 14 -16 21 -36 20 -56 92 -184 102 -184 6 0 7 -4 4 -10 -3
-5 -1 -10 6 -10 7 0 10 -3 6 -6 -7 -7 48 -109 75 -140 10 -11 18 -24 18 -28 0
-11 161 -250 171 -254 5 -2 9 -9 9 -14 0 -10 74 -114 91 -128 3 -3 10 -12 15
-21 41 -74 322 -388 509 -569 265 -257 344 -307 535 -339 109 -18 121 -19 243
-20 l117 -1 0 -57 c0 -32 5 -76 11 -98 16 -63 50 -145 60 -145 5 0 9 -6 9 -12
1 -24 61 -80 86 -80 13 0 27 -5 31 -11 3 -5 1 -7 -5 -3 -6 3 -13 2 -16 -3 -7
-11 18 -33 32 -29 6 2 17 -5 24 -14 14 -18 14 -19 76 20 14 8 23 9 27 2 4 -6
3 -10 -2 -9 -16 4 -43 -13 -36 -24 3 -6 1 -7 -5 -3 -14 8 -15 -3 -3 -23 5 -7
14 -10 20 -7 6 4 11 3 11 -2 0 -17 240 -127 490 -225 208 -82 565 -189 735
-221 17 -3 64 -12 105 -21 122 -25 203 -37 475 -70 235 -29 775 -26 1065 6
474 51 1012 190 1415 364 926 401 1665 1007 2227 1825 145 210 322 523 419
740 123 275 151 353 156 433 14 200 -120 455 -415 790 -47 53 -89 94 -92 90
-4 -5 -12 -39 -20 -78 -29 -156 -73 -319 -148 -537 -46 -136 -60 -156 -88
-129 -5 5 -50 16 -100 25 -51 9 -118 26 -150 40 -33 13 -101 33 -153 44 l-93
19 -50 -21 -50 -21 7 -60 c4 -33 8 -69 9 -81 1 -23 -81 -94 -354 -308 -980
-766 -2204 -1465 -3321 -1896 -215 -84 -376 -140 -624 -219 -233 -73 -308 -93
-330 -85 -9 4 -21 0 -29 -11 -11 -15 -16 -15 -33 -5 -11 7 -29 10 -39 6 -14
-5 -15 -9 -5 -15 8 -5 9 -11 3 -15 -5 -3 -13 2 -17 12 -6 15 -8 14 -20 -8 -12
-20 -14 -21 -15 -7 0 11 -6 17 -12 14 -7 -2 -12 -12 -12 -21 1 -9 -2 -16 -7
-16 -5 0 -9 6 -9 13 0 8 -3 8 -9 -2 -5 -8 -16 -11 -24 -8 -12 4 -14 2 -10 -10
4 -11 2 -14 -5 -9 -7 4 -12 2 -12 -6 0 -10 -2 -10 -9 0 -12 20 -91 17 -91 -2
0 -6 -5 -3 -11 6 -7 13 -15 15 -33 8 -13 -5 -27 -6 -32 -2 -4 4 -4 1 0 -5 4
-7 2 -13 -4 -13 -6 0 -8 -4 -5 -10 3 -5 2 -10 -3 -10 -5 0 -12 10 -16 23 -5
18 -8 20 -16 7 -5 -8 -10 -11 -10 -6 0 5 -8 2 -17 -5 -14 -12 -16 -12 -9 0 6
9 5 12 -5 9 -8 -3 -13 -10 -12 -15 2 -11 -26 -11 -44 0 -7 4 -25 0 -40 -10
-26 -16 -27 -16 -14 0 12 15 11 17 -15 17 -22 0 -25 -3 -14 -10 8 -5 12 -12 8
-15 -3 -3 -12 0 -20 8 -15 15 -65 16 -59 1 1 -5 8 -8 14 -6 6 2 3 -6 -7 -17
-21 -23 -35 -29 -17 -7 9 10 8 16 -4 26 -8 7 -12 17 -9 22 4 7 0 7 -12 1 -20
-11 -70 -10 -81 0 -3 4 -12 2 -19 -4 -8 -7 -14 -6 -20 2 -5 8 -3 9 6 4 8 -5
11 -4 7 2 -4 6 -22 8 -46 3 -22 -4 -44 -3 -48 1 -5 5 -30 10 -57 12 -26 2 -51
9 -55 15 -4 6 -22 13 -41 15 -19 2 -46 8 -60 15 -32 14 -80 56 -80 71 0 6 -4
11 -9 11 -15 0 -24 40 -11 55 6 7 30 15 53 17 59 6 256 45 357 71 150 38 297
34 500 -14 18 -5 18 0 1 211 -78 1019 -120 2272 -130 3957 l-6 1082 25 7 c28
7 30 5 -49 35 -60 22 -295 188 -502 353 -41 34 -123 99 -182 145 -59 46 -129
105 -156 130 -27 25 -109 98 -182 162 -172 150 -479 452 -557 548 l-60 75 73
85 c82 96 335 350 405 406 25 20 57 49 72 64 l26 28 -96 21 c-282 63 -529 87
-706 70z m2255 -7631 c-10 -9 -11 -8 -5 6 3 10 9 15 12 12 3 -3 0 -11 -7 -18z
m196 -6 c0 -11 -5 -18 -9 -15 -4 3 -5 11 -1 19 7 21 12 19 10 -4z m53 -23 c0
-5 -5 -8 -11 -8 -5 0 -7 6 -4 13 4 6 1 5 -7 -4 -7 -8 -25 -24 -41 -34 -22 -14
-25 -20 -16 -31 13 -16 40 -1 35 19 -1 7 -1 9 1 5 9 -15 32 -8 47 14 9 12 17
19 17 15 1 -4 2 -11 3 -15 0 -5 9 -16 19 -26 22 -22 22 -21 -8 -24 -15 -1 -23
3 -21 11 1 6 1 9 -1 6 -2 -3 -16 -4 -31 -3 -15 2 -21 1 -14 -2 6 -3 10 -9 7
-14 -3 -4 5 -8 18 -9 42 -1 57 -4 57 -13 0 -4 7 -8 16 -8 8 0 12 -4 9 -10 -3
-5 0 -10 7 -11 10 0 11 -2 0 -6 -10 -4 -10 -8 0 -21 8 -9 8 -13 2 -9 -7 4 -14
0 -18 -8 -3 -8 -1 -17 5 -20 5 -4 7 -11 3 -16 -4 -6 -11 -6 -19 1 -16 13 -35
5 -35 -13 0 -8 3 -8 9 1 7 11 9 11 14 -2 4 -10 13 -13 24 -9 16 5 16 4 2 -8
-8 -8 -23 -22 -33 -33 -16 -18 -17 -17 -12 8 3 14 0 26 -5 26 -5 0 -9 -8 -9
-17 0 -15 -2 -16 -10 -3 -8 13 -10 12 -10 -2 0 -10 5 -18 10 -18 6 0 10 -4 10
-10 0 -5 -9 -10 -21 -10 -13 0 -18 -4 -13 -12 4 -7 4 -10 -1 -6 -4 4 -14 3
-21 -3 -8 -6 -21 -9 -29 -5 -9 3 -13 2 -10 -4 3 -6 -1 -10 -11 -10 -11 0 -15
6 -11 20 3 11 1 23 -4 26 -5 3 -6 10 -3 16 4 6 2 8 -3 5 -6 -4 -8 -18 -5 -32
2 -15 0 -25 -7 -25 -7 0 -11 7 -9 16 2 10 -3 18 -10 20 -7 1 -8 0 -2 -3 6 -3
6 -11 -1 -25 -7 -13 -7 -18 -1 -14 6 3 13 2 17 -4 10 -16 -28 -11 -55 7 -24
16 -24 16 -11 0 8 -10 12 -19 10 -21 -9 -9 -74 -10 -73 -1 1 6 -7 19 -17 29
-11 11 -19 14 -19 8 0 -6 5 -14 10 -17 17 -10 12 -35 -6 -28 -9 3 -20 0 -26
-8 -7 -10 -8 -9 -3 6 13 38 14 55 3 55 -5 0 -8 -6 -5 -13 2 -7 -4 -23 -15 -36
l-19 -24 6 31 c3 17 1 34 -5 37 -5 3 -10 13 -10 21 0 17 27 19 33 2 3 -10 7
-10 20 1 10 7 17 18 17 24 0 6 7 18 16 28 15 16 14 17 -5 12 -14 -3 -21 -13
-21 -28 0 -17 -5 -22 -17 -20 -10 2 -22 4 -28 4 -7 1 -7 4 0 9 14 10 16 44 1
35 -17 -11 -35 -12 -41 -3 -3 5 0 12 6 16 6 3 15 0 20 -7 6 -10 9 -11 9 -1 0
6 8 12 18 12 15 1 15 2 1 13 -8 7 -20 20 -26 31 -9 16 -11 17 -16 2 -4 -10 -3
-15 3 -11 6 3 10 -1 10 -9 0 -18 -16 -21 -25 -6 -4 6 -10 8 -15 5 -11 -7 -7
15 8 40 6 11 12 15 12 8 0 -6 8 -10 18 -8 9 1 16 7 15 11 -1 5 19 7 44 5 35
-2 44 0 38 9 -5 9 -4 11 4 6 6 -4 8 -12 5 -18 -4 -6 -1 -8 7 -6 8 3 13 11 11
17 -1 7 2 10 8 6 5 -3 10 1 10 10 0 9 5 13 10 10 6 -4 7 -11 4 -17 -5 -8 -1
-9 10 -5 10 4 27 7 39 7 17 0 19 2 8 9 -19 12 -23 41 -5 34 8 -3 12 -9 9 -13
-3 -5 -1 -11 5 -15 11 -7 -9 -45 -23 -45 -4 0 -5 6 -1 13 6 9 4 9 -8 -1 -8 -7
-23 -9 -32 -6 -9 4 -16 3 -15 -2 4 -22 -2 -34 -16 -34 -8 0 -15 4 -15 8 0 5
-7 9 -15 9 -31 0 -7 -22 24 -23 17 0 40 -8 51 -17 11 -9 22 -12 25 -7 4 6 16
10 28 10 16 0 18 3 9 12 -8 8 -15 8 -26 -1 -10 -8 -21 -9 -31 -4 -15 9 -15 11
1 24 12 10 18 11 21 3 2 -7 13 -9 24 -7 16 5 18 8 7 14 -10 7 -11 9 0 9 7 0
10 5 7 10 -3 6 0 10 8 10 8 0 18 7 21 16 3 8 10 13 16 9 6 -4 5 -13 -2 -25 -7
-10 -15 -17 -19 -14 -4 2 -5 -6 -1 -18 3 -12 7 -17 10 -10 2 7 8 9 14 6 5 -3
9 0 7 7 -3 26 1 42 9 35 4 -4 7 -20 7 -34 0 -21 5 -28 25 -30 24 -3 24 -3 6
11 -19 14 -31 61 -13 50 5 -3 7 0 5 8 -3 8 -13 13 -22 13 -9 -1 -16 3 -16 8 0
6 -7 8 -15 4 -8 -3 -15 -1 -15 4 0 6 5 10 12 10 6 0 8 3 5 7 -4 3 -3 11 3 17
6 8 3 16 -10 24 -19 11 -40 -1 -26 -15 3 -4 6 -1 6 6 0 7 4 10 9 7 5 -3 7 -15
4 -26 -3 -11 -9 -18 -13 -15 -4 2 -5 -8 -3 -23 3 -23 2 -24 -6 -7 -5 11 -10
34 -11 50 -1 30 -1 30 -11 6 -7 -19 -12 -22 -21 -13 -9 9 -7 16 9 27 14 10 20
22 17 33 -4 13 -3 14 4 4 5 -8 15 -13 23 -12 25 4 40 0 35 -9 -3 -4 6 -6 19
-3 24 4 29 12 26 40 -1 8 5 7 18 -5 12 -10 21 -21 21 -25z m-380 -22 c0 -5 -3
-6 -7 -3 -3 4 -15 -1 -25 -10 -18 -16 -18 -16 -12 0 3 9 10 17 15 17 5 0 9 8
9 18 0 14 2 15 10 2 5 -8 10 -19 10 -24z m137 27 c-9 -8 -47 -11 -47 -4 0 5
11 9 25 9 14 0 24 -2 22 -5z m-93 -11 c3 -5 -1 -9 -9 -9 -8 0 -15 4 -15 9 0 4
4 8 9 8 6 0 12 -4 15 -8z m150 -45 c2 -15 0 -29 -5 -32 -5 -4 -9 -2 -9 4 0 5
-8 8 -17 6 -10 -2 -22 -4 -26 -4 -5 -1 -5 -7 -1 -13 6 -10 5 -10 -7 -1 -11 9
-20 8 -39 -7 -32 -25 -37 -25 -50 0 -7 14 -7 20 0 20 5 0 10 -7 10 -15 0 -19
19 -19 26 0 4 8 10 13 14 10 4 -3 13 2 20 10 10 12 10 15 0 15 -8 0 -10 3 -7
6 4 4 13 1 22 -6 12 -10 18 -10 32 1 14 12 16 12 8 0 -5 -10 -4 -12 4 -7 9 6
9 11 -1 24 -10 12 -10 14 0 8 6 -4 12 -2 12 3 0 6 -5 11 -11 11 -5 0 -7 5 -3
11 8 14 21 -5 28 -44z m-316 31 c-3 -7 -14 -18 -26 -24 -12 -6 -20 -13 -17
-15 2 -3 -4 -5 -15 -5 -10 0 -16 4 -14 8 3 4 -1 8 -9 8 -7 0 -14 7 -14 15 0
13 3 13 21 1 23 -15 72 -4 61 14 -3 5 -1 10 5 10 7 0 10 -6 8 -12z m57 -8 c3
-6 -1 -7 -9 -4 -18 7 -21 14 -7 14 6 0 13 -4 16 -10z m209 -5 c-4 -8 -8 -15
-10 -15 -2 0 -4 7 -4 15 0 8 4 15 10 15 5 0 7 -7 4 -15z m236 11 c0 -2 -7 -7
-16 -10 -8 -3 -12 -2 -9 4 6 10 25 14 25 6z m-306 -45 c-4 -3 -9 0 -11 7 -3 6
-10 9 -15 6 -7 -4 -8 -2 -4 5 6 9 11 9 22 0 8 -6 12 -15 8 -18z m-128 -18 c-3
-4 -6 -1 -6 6 0 7 -4 9 -10 6 -6 -4 -7 1 -3 11 6 15 7 15 15 -1 6 -9 7 -19 4
-22z m40 28 c-9 -14 5 -41 20 -41 12 0 12 5 4 23 -11 21 -10 21 4 3 20 -25 20
-36 2 -36 -8 0 -22 -3 -32 -7 -14 -5 -16 -2 -12 15 3 11 1 23 -6 26 -7 3 -6 8
4 15 19 13 23 14 16 2z m-632 -10 c3 -5 0 -11 -7 -14 -8 -3 -14 1 -14 9 0 16
13 19 21 5z m132 -8 c-10 -11 -37 -12 -30 -2 3 5 12 9 21 9 9 0 13 -3 9 -7z
m80 -18 c1 -8 -2 -12 -8 -9 -6 4 -14 0 -19 -7 -7 -11 -9 -11 -9 -1 0 7 7 15
15 18 8 4 12 11 8 18 -3 6 -2 7 2 3 5 -4 10 -14 11 -22z m89 5 c3 -5 1 -10 -4
-10 -6 0 -11 5 -11 10 0 6 2 10 4 10 3 0 8 -4 11 -10z m-397 -14 c-7 -8 -15
-12 -17 -11 -5 6 10 25 20 25 5 0 4 -6 -3 -14z m206 -25 c-2 -2 -10 1 -17 7
-8 7 -17 9 -21 5 -4 -4 -4 0 -1 9 6 15 8 15 24 0 10 -9 16 -19 15 -21z m420
27 c-5 -8 0 -9 14 -6 13 4 20 2 16 -4 -3 -5 -17 -7 -31 -3 -14 3 -22 2 -19 -3
2 -4 -4 -14 -15 -20 -18 -12 -19 -11 -9 7 5 11 18 25 28 30 22 13 25 13 16 -1z
m-107 -17 c0 -11 -5 -18 -9 -15 -4 3 -5 11 -1 19 7 21 12 19 10 -4z m178 9 c3
-6 -1 -7 -9 -4 -18 7 -21 14 -7 14 6 0 13 -4 16 -10z m-684 -23 c-10 -9 -11
-8 -5 6 3 10 9 15 12 12 3 -3 0 -11 -7 -18z m412 9 c4 -10 1 -13 -9 -9 -7 3
-14 -1 -14 -8 0 -7 -2 -10 -5 -7 -7 7 5 38 15 38 4 0 10 -7 13 -14z m128 -13
c13 -16 12 -17 -3 -4 -17 13 -22 21 -14 21 2 0 10 -8 17 -17z m113 2 c-4 -8
-14 -15 -23 -15 -14 1 -13 3 3 15 25 19 27 19 20 0z m-523 -28 c-10 -9 -11 -8
-5 6 3 10 9 15 12 12 3 -3 0 -11 -7 -18z m37 -2 c-3 -3 -9 2 -12 12 -6 14 -5
15 5 6 7 -7 10 -15 7 -18z m40 0 c-3 -3 -9 2 -12 12 -6 14 -5 15 5 6 7 -7 10
-15 7 -18z m105 10 c-3 -9 -8 -14 -10 -11 -3 3 -2 9 2 15 9 16 15 13 8 -4z
m54 3 c0 -7 1 -24 1 -37 2 -20 4 -21 17 -11 24 20 18 5 -7 -16 -12 -10 -18
-14 -15 -7 4 6 3 14 -2 18 -6 3 -8 12 -4 20 5 14 -7 20 -30 16 -5 -1 -6 3 -2
9 3 6 10 8 15 5 5 -3 11 -1 15 5 8 13 13 13 12 -2z m94 -1 c-6 -8 -7 -18 -3
-22 4 -5 1 -5 -6 -1 -10 6 -10 11 -1 22 6 8 14 14 16 14 3 0 0 -6 -6 -13z
m152 -2 c4 -8 3 -16 -1 -19 -4 -3 -9 4 -9 15 -2 23 3 25 10 4z m57 -5 c-14
-10 -27 -17 -29 -14 -6 5 31 33 44 33 6 1 -1 -8 -15 -19z m-956 -5 c-4 -8 -8
-15 -10 -15 -2 0 -4 7 -4 15 0 8 4 15 10 15 5 0 7 -7 4 -15z m32 -5 c0 -12 -4
-16 -9 -11 -5 5 -6 14 -3 20 10 15 12 14 12 -9z m183 17 c-2 -1 -13 -9 -24
-17 -19 -14 -19 -14 -6 3 7 9 18 17 24 17 6 0 8 -1 6 -3z m333 -20 c-3 -10 1
-23 9 -28 11 -7 11 -9 1 -9 -7 0 -10 -5 -6 -12 5 -7 3 -8 -5 -4 -7 5 -10 10
-8 13 3 2 2 17 -3 32 -5 20 -4 28 5 28 7 0 10 -8 7 -20z m323 6 c-2 -10 -4
-24 -4 -32 -1 -19 -12 -8 -15 16 -2 10 2 21 8 25 15 10 15 10 11 -9z m-170 -3
c-3 -5 -1 -10 6 -10 7 0 10 -3 6 -6 -9 -9 -28 6 -22 17 4 5 8 9 11 9 3 0 2 -4
-1 -10z m93 -9 c-2 -19 4 -24 12 -11 7 11 8 4 5 -22 -4 -20 -1 -39 5 -43 5 -3
10 -1 10 6 0 7 6 4 14 -7 13 -17 13 -20 -2 -25 -13 -5 -14 -6 -1 -11 9 -4 21
2 28 14 7 11 8 17 2 13 -6 -3 -11 -1 -11 4 0 6 0 14 0 18 0 4 6 8 14 9 9 1 12
-4 9 -12 -4 -11 0 -13 18 -6 13 5 30 7 38 4 9 -3 11 0 6 8 -5 8 -4 11 3 6 6
-3 16 2 22 11 11 17 11 17 6 1 -3 -10 -9 -25 -12 -33 -8 -19 12 -20 23 -1 7
12 11 12 27 1 18 -13 18 -16 2 -40 -9 -14 -13 -25 -9 -24 26 4 33 -3 29 -28
-5 -24 -21 -42 -38 -43 -3 0 -10 12 -15 27 -9 27 -10 27 -15 5 -4 -12 -2 -20
3 -16 5 3 9 0 9 -6 0 -16 -52 -4 -64 14 -8 11 -13 9 -28 -10 -18 -22 -55 -24
-41 -1 3 6 1 7 -5 3 -7 -4 -12 -1 -12 8 0 14 -16 16 -35 4 -12 -7 -36 4 -38
18 -1 5 -7 8 -14 8 -6 -1 -10 7 -8 17 2 11 0 19 -5 19 -5 0 -2 20 8 45 11 32
19 42 27 34 7 -8 6 -13 -2 -16 -7 -3 -13 -9 -13 -15 0 -6 7 -8 15 -4 8 3 15 0
15 -5 0 -6 -9 -9 -20 -6 -13 3 -20 0 -20 -10 0 -8 4 -12 9 -9 5 4 7 -3 4 -14
-3 -12 0 -20 6 -20 7 0 9 5 5 13 -6 9 -4 9 8 -1 9 -7 15 -20 13 -30 -1 -9 0
-11 2 -4 3 6 9 12 14 12 6 0 7 5 3 11 -4 7 -1 10 7 7 8 -3 15 -10 15 -16 1 -7
2 -14 3 -16 0 -3 16 1 35 9 33 14 36 14 56 -12 16 -20 23 -24 32 -15 9 9 9 12
-1 12 -8 0 -24 11 -37 25 -13 14 -29 25 -36 25 -10 0 -10 -2 1 -9 10 -7 7 -9
-12 -8 -14 1 -23 5 -20 10 4 7 -10 10 -37 8 -10 -1 -9 2 4 10 16 10 17 14 5
23 -20 16 -44 48 -33 44 5 -2 10 2 11 7 0 6 -3 9 -8 8 -5 -2 -8 3 -6 10 1 6
-3 11 -9 10 -6 -1 -11 4 -11 11 0 8 8 11 18 9 10 -3 18 -8 17 -12z m-364 -16
c-4 -8 -11 -12 -16 -9 -6 4 -5 10 3 15 19 12 19 11 13 -6z m56 0 c-9 -10 -9
-15 -1 -15 6 0 11 -5 11 -11 0 -8 -5 -8 -15 1 -12 10 -13 16 -4 26 6 8 14 14
16 14 3 0 0 -7 -7 -15z m115 5 c3 -5 1 -10 -4 -10 -6 0 -11 5 -11 10 0 6 2 10
4 10 3 0 8 -4 11 -10z m-78 -15 c0 -8 -4 -12 -9 -9 -4 3 -8 9 -8 15 0 5 4 9 8
9 5 0 9 -7 9 -15z m218 5 c-3 -5 -12 -10 -18 -10 -7 0 -6 4 3 10 19 12 23 12
15 0z m187 -12 c-3 -12 -7 -17 -10 -10 -2 7 -9 10 -15 6 -7 -3 -3 2 7 10 25
20 25 20 18 -6z m-706 -30 c-6 -4 -12 -1 -14 7 -2 9 -7 13 -12 10 -5 -3 -12 0
-16 6 -4 8 -3 9 4 5 7 -4 12 -2 12 3 0 6 8 3 18 -6 12 -12 14 -21 8 -25z m126
-13 c-3 -5 -2 -7 3 -3 4 4 16 3 26 -3 11 -5 19 -6 19 -1 0 5 12 8 26 6 23 -2
25 1 21 22 -4 23 -3 24 14 8 9 -8 16 -25 14 -36 -3 -14 0 -18 10 -14 8 3 17 2
19 -3 6 -9 -25 -11 -39 -1 -5 3 -23 7 -40 7 -16 1 -24 -1 -17 -4 17 -7 15 -23
-3 -23 -8 0 -15 7 -15 15 0 14 -13 20 -34 16 -15 -3 -24 19 -18 42 5 20 6 20
12 1 4 -10 5 -23 2 -29z m248 41 c0 -2 -7 -7 -16 -10 -8 -3 -12 -2 -9 4 6 10
25 14 25 6z m-185 -16 c3 -5 1 -10 -4 -10 -6 0 -11 5 -11 10 0 6 2 10 4 10 3
0 8 -4 11 -10z m-123 -19 c-5 -3 -11 -15 -13 -25 -4 -19 -4 -19 -19 -1 -8 11
-10 16 -3 12 7 -4 14 1 18 13 4 11 11 17 17 14 7 -4 7 -9 0 -13z m98 9 c0 -5
-4 -10 -10 -10 -5 0 -10 5 -10 10 0 6 5 10 10 10 6 0 10 -4 10 -10z m130 -5
c0 -8 -4 -15 -10 -15 -5 0 -7 7 -4 15 4 8 8 15 10 15 2 0 4 -7 4 -15z m74 0
c-4 -8 -10 -13 -14 -10 -4 3 -10 -2 -14 -10 -4 -11 2 -14 25 -11 19 2 27 0 21
-6 -5 -5 -18 -10 -30 -11 -11 0 -18 -5 -16 -9 3 -5 10 -6 15 -3 5 4 9 1 9 -5
0 -6 11 -8 24 -6 27 5 39 -2 30 -16 -3 -5 -11 -4 -19 2 -9 8 -14 6 -19 -5 -3
-9 -2 -14 2 -11 5 3 9 -1 9 -9 0 -8 -4 -12 -9 -9 -4 3 -8 -1 -8 -8 0 -10 -2
-10 -9 1 -5 8 -8 22 -6 32 2 11 -4 19 -17 22 -14 4 -19 11 -15 21 4 11 1 16
-11 17 -12 0 -13 2 -3 6 7 3 22 14 32 24 23 23 30 24 23 4z m117 -18 c-10 -9
-11 -8 -5 6 3 10 9 15 12 12 3 -3 0 -11 -7 -18z m-37 1 c-3 -5 -10 -6 -15 -3
-5 4 -9 -1 -9 -10 0 -9 4 -14 9 -10 5 3 12 1 16 -5 3 -5 -1 -10 -9 -10 -8 0
-18 5 -21 10 -10 16 1 37 19 37 8 0 13 -4 10 -9z m-449 -19 c-4 -5 -12 -9 -18
-8 -9 0 -8 2 1 6 6 2 9 10 6 15 -4 7 -2 8 5 4 6 -4 9 -12 6 -17z m90 12 c-3
-5 3 -12 12 -14 11 -3 6 -5 -11 -6 -24 -1 -27 1 -16 14 14 16 25 21 15 6z
m-110 -39 c-3 -3 -11 0 -18 7 -9 10 -8 11 6 5 10 -3 15 -9 12 -12z m69 -25
c-10 -27 -20 -20 -19 13 0 24 2 27 13 16 7 -7 10 -20 6 -29z m180 28 c-4 -8
-8 -15 -10 -15 -2 0 -4 7 -4 15 0 8 4 15 10 15 5 0 7 -7 4 -15z m77 1 c-9 -11
-7 -15 11 -19 14 -4 28 -19 35 -37 10 -27 15 -29 42 -24 17 4 31 2 31 -3 0 -5
-25 -9 -56 -10 -41 -1 -53 2 -45 10 14 14 14 37 0 37 -5 0 -7 -5 -3 -12 5 -8
2 -9 -10 -5 -10 4 -21 7 -25 7 -4 0 -7 13 -7 29 0 17 3 28 8 25 4 -3 8 0 8 5
0 6 5 11 11 11 8 0 8 -4 0 -14z m-291 -5 c0 -5 -7 -12 -16 -15 -14 -5 -15 -4
-4 9 14 17 20 19 20 6z m130 -1 c3 -1 8 -2 12 -1 4 0 4 -7 1 -17 -6 -15 -5
-15 10 -3 10 8 20 11 23 8 3 -3 -4 -10 -15 -17 -12 -6 -21 -7 -21 -3 0 4 -5 1
-11 -7 -8 -12 -9 -10 -7 10 2 14 -2 25 -9 25 -6 0 -14 3 -18 7 -6 5 19 4 35
-2z m350 -10 c0 -17 -2 -19 -14 -8 -14 13 -12 28 5 28 5 0 9 -9 9 -20z m-411
-7 c-11 -13 -11 -17 -1 -20 6 -3 12 -10 12 -16 0 -6 -7 -4 -17 5 -13 14 -14
20 -3 32 7 9 15 16 17 16 3 0 -1 -7 -8 -17z m151 -18 c-19 -14 -43 -25 -54
-25 -21 1 -21 1 -1 12 11 6 23 16 27 22 5 7 8 7 8 -2 0 -10 4 -10 16 2 8 9 20
16 27 16 6 0 -4 -11 -23 -25z m-116 -1 c3 -8 2 -12 -4 -9 -6 3 -10 10 -10 16
0 14 7 11 14 -7z m338 -16 c-5 -20 -20 -23 -42 -7 -12 9 -11 10 8 6 23 -5 31
8 10 16 -7 3 -4 5 8 4 15 -1 20 -6 16 -19z m73 13 c-3 -5 -1 -12 5 -16 6 -4 7
-11 4 -17 -4 -6 -3 -8 2 -5 6 3 16 2 24 -4 11 -6 8 -9 -12 -9 -25 0 -33 9 -29
33 1 5 -3 6 -9 2 -6 -3 -8 -11 -5 -16 10 -14 -15 -10 -31 5 -9 9 -10 17 -4 21
5 3 10 1 10 -5 0 -7 9 -5 22 4 26 18 32 20 23 7z m-230 -30 c3 -5 1 -12 -5
-16 -5 -3 -10 1 -10 9 0 18 6 21 15 7z m303 -9 c6 -18 -15 -14 -22 4 -4 10 -1
14 6 12 6 -2 14 -10 16 -16z m-118 -12 c13 -8 13 -10 -2 -10 -9 0 -20 5 -23
10 -8 13 5 13 25 0z"/>
<path d="M4080 799 c0 -6 -9 -8 -20 -4 -24 8 -39 -20 -21 -38 9 -9 11 -8 6 4
-4 10 -1 20 6 25 8 4 10 3 5 -4 -4 -7 -2 -12 4 -12 7 0 10 -7 6 -15 -3 -8 0
-15 5 -15 6 0 9 8 7 18 -3 10 1 23 9 30 10 10 13 10 13 -2 0 -10 6 -13 16 -9
15 6 15 8 -2 20 -22 16 -34 17 -34 2z"/>
<path d="M3717 764 c-4 -4 2 -19 12 -33 10 -14 16 -32 14 -38 -6 -17 2 -16 37
2 31 16 42 32 16 22 -16 -6 -32 26 -21 43 7 11 -47 14 -58 4z m53 -49 c7 -9 8
-15 2 -15 -5 0 -12 7 -16 15 -3 8 -4 15 -2 15 2 0 9 -7 16 -15z"/>
<path d="M4103 741 c0 -11 5 -18 9 -15 4 3 5 11 1 19 -7 21 -12 19 -10 -4z"/>
<path d="M3844 693 c10 -11 37 -12 30 -2 -3 5 -12 9 -21 9 -9 0 -13 -3 -9 -7z"/>
<path d="M3967 686 c-4 -10 -1 -13 8 -9 8 3 12 9 9 14 -7 12 -11 11 -17 -5z"/>
<path d="M3806 674 c-4 -9 -4 -19 -1 -22 2 -3 7 3 11 12 4 9 4 19 1 22 -2 3
-7 -3 -11 -12z"/>
<path d="M3846 645 c14 -21 34 -26 34 -9 0 3 -4 3 -9 -1 -5 -3 -12 4 -16 15
-3 11 -11 20 -16 20 -5 0 -2 -11 7 -25z"/>
<path d="M4006 653 c-6 -14 -5 -15 5 -6 7 7 10 15 7 18 -3 3 -9 -2 -12 -12z"/>
<path d="M3958 653 c7 -3 16 -2 19 1 4 3 -2 6 -13 5 -11 0 -14 -3 -6 -6z"/>
<path d="M3802 600 c0 -14 2 -19 5 -12 2 6 2 18 0 25 -3 6 -5 1 -5 -13z"/>
<path d="M4005 610 c-3 -6 1 -7 9 -4 18 7 21 14 7 14 -6 0 -13 -4 -16 -10z"/>
<path d="M3560 635 c0 -7 7 -16 16 -19 8 -3 12 -2 9 4 -9 15 3 12 24 -7 11 -9
18 -20 15 -25 -9 -14 7 -9 29 10 23 18 35 52 19 52 -15 0 -34 -28 -27 -40 3
-5 2 -10 -2 -10 -5 0 -13 8 -20 19 -14 22 -63 34 -63 16z"/>
<path d="M3661 564 c0 -11 3 -14 6 -6 3 7 2 16 -1 19 -3 4 -6 -2 -5 -13z"/>
<path d="M3525 559 c-11 -4 -15 -8 -8 -8 6 -1 13 -8 15 -18 3 -14 5 -14 15 -2
17 20 3 38 -22 28z"/>
<path d="M3187 574 c2 -7 11 -10 19 -7 19 7 18 10 -5 16 -13 3 -18 1 -14 -9z"/>
<path d="M2469 8481 c10 -6 11 -13 2 -29 -11 -20 2 -42 16 -28 4 3 0 6 -7 6
-9 0 -7 6 6 21 16 17 16 22 4 29 -8 6 -19 10 -25 10 -5 0 -4 -4 4 -9z"/>
<path d="M2507 8443 c-12 -12 -7 -30 8 -30 10 0 12 4 5 12 -5 7 -7 15 -3 18 3
4 4 7 1 7 -2 0 -8 -3 -11 -7z"/>
<path d="M2610 8323 c0 -15 -2 -16 -10 -3 -5 8 -12 11 -15 8 -10 -10 4 -28 21
-28 8 0 12 -4 9 -10 -3 -5 -2 -10 3 -10 12 0 12 49 1 56 -5 3 -9 -3 -9 -13z"/>
<path d="M2794 8150 c0 -13 4 -16 10 -10 7 7 7 13 0 20 -6 6 -10 3 -10 -10z"/>
<path d="M2890 8050 c0 -5 5 -10 10 -10 6 0 10 5 10 10 0 6 -4 10 -10 10 -5 0
-10 -4 -10 -10z"/>
<path d="M2948 8003 c7 -3 16 -2 19 1 4 3 -2 6 -13 5 -11 0 -14 -3 -6 -6z"/>
<path d="M3092 7908 c-8 -8 -3 -20 21 -45 18 -18 37 -33 42 -33 6 0 4 4 -2 8
-7 5 -14 20 -15 34 -3 31 -30 52 -46 36z m23 -26 c-3 -3 -11 0 -18 7 -9 10 -8
11 6 5 10 -3 15 -9 12 -12z"/>
<path d="M3185 7840 c-13 -6 -15 -9 -5 -9 13 -1 13 -2 0 -11 -9 -6 -10 -10 -3
-10 7 0 17 9 23 20 6 11 9 20 8 19 -2 0 -12 -4 -23 -9z"/>
<path d="M3285 7750 c-3 -5 -1 -10 4 -10 6 0 11 5 11 10 0 6 -2 10 -4 10 -3 0
-8 -4 -11 -10z"/>
<path d="M3310 7746 c0 -2 7 -7 16 -10 8 -3 12 -2 9 4 -6 10 -25 14 -25 6z"/>
<path d="M3350 7696 c0 -8 4 -17 9 -20 5 -4 7 3 4 14 -6 23 -13 26 -13 6z"/>
<path d="M3500 7630 c0 -5 5 -10 10 -10 6 0 10 5 10 10 0 6 -4 10 -10 10 -5 0
-10 -4 -10 -10z"/>
<path d="M3531 7624 c0 -11 3 -14 6 -6 3 7 2 16 -1 19 -3 4 -6 -2 -5 -13z"/>
<path d="M3465 7610 c3 -5 8 -10 11 -10 2 0 4 5 4 10 0 6 -5 10 -11 10 -5 0
-7 -4 -4 -10z"/>
<path d="M3486 7595 c-3 -9 0 -15 9 -15 8 0 15 7 15 15 0 8 -4 15 -9 15 -5 0
-11 -7 -15 -15z"/>
<path d="M3520 7596 c0 -2 7 -7 16 -10 8 -3 12 -2 9 4 -6 10 -25 14 -25 6z"/>
<path d="M3570 7550 c-9 -6 -10 -10 -3 -10 6 0 15 5 18 10 8 12 4 12 -15 0z"/>
<path d="M3636 7551 c-4 -5 -2 -12 3 -15 5 -4 12 -2 15 3 4 5 2 12 -3 15 -5 4
-12 2 -15 -3z"/>
<path d="M3657 7524 c-9 -13 -23 -21 -31 -18 -7 3 -13 -2 -13 -10 0 -12 4 -13
21 -3 12 6 25 10 29 9 5 -1 6 2 3 7 -4 5 1 14 10 19 9 5 13 12 8 15 -5 3 -17
-6 -27 -19z"/>
<path d="M3785 7431 c3 -5 1 -12 -5 -16 -13 -8 -3 -25 13 -25 8 0 8 3 -2 9 -9
6 -10 11 -2 15 14 9 14 26 0 26 -5 0 -8 -4 -4 -9z"/>
<path d="M3870 7309 c0 -5 5 -7 10 -4 6 3 10 8 10 11 0 2 -4 4 -10 4 -5 0 -10
-5 -10 -11z"/>
<path d="M3970 7306 c0 -2 7 -6 15 -10 8 -3 15 -1 15 4 0 6 -7 10 -15 10 -8 0
-15 -2 -15 -4z"/>
<path d="M4014 7179 c-10 -17 10 -29 23 -14 10 10 9 14 -2 19 -8 3 -17 0 -21
-5z"/>
<path d="M4069 7133 c-13 -17 -13 -17 6 -3 11 8 22 16 24 17 2 2 0 3 -6 3 -6
0 -17 -8 -24 -17z"/>
<path d="M4060 7079 c0 -5 -4 -7 -10 -4 -5 3 -10 1 -10 -5 0 -7 8 -9 21 -5 16
5 19 4 14 -5 -5 -8 -4 -11 3 -6 6 4 9 13 5 21 -6 17 -23 20 -23 4z"/>
</g>
</svg>
