<?xml version="1.0" encoding="UTF-8"?>
<svg width="16px" height="16px" enable-background="new 0 0 16 16" version="1.1" viewBox="0 0 16 16" xml:space="preserve" xmlns="http://www.w3.org/2000/svg">
<g clip-rule="evenodd" fill-rule="evenodd" style="fill:#000000">
	
	<path d="m4.451 13.525c-0.182-0.018-0.359-0.03-0.534-0.053-0.147-0.019-0.276-0.084-0.391-0.182-0.711-0.612-1.278-1.338-1.696-2.179-0.308-0.619-0.517-1.271-0.632-1.953-0.106-0.631-0.126-1.265-0.057-1.903 0.074-0.697 0.251-1.369 0.529-2.014 0.274-0.634 0.642-1.208 1.078-1.743 0.148-0.181 0.335-0.207 0.535-0.208 0.161-1e-3 0.323 0.015 0.483 0.036s0.317 0.06 0.479 0.091c-0.266 0.266-0.528 0.527-0.787 0.787 0.397 0.542 1.837 1.767 2.316 1.979-0.01 0.025-0.028 0.05-0.028 0.074 7e-3 1.109 9e-3 2.219 0.028 3.328 0.014 0.809 0.047 1.616 0.082 2.425 0.019 0.434 0.058 0.867 0.088 1.301 1e-3 0.024 0 0.049 0 0.083-0.063-0.013-0.119-0.025-0.175-0.036-0.185-0.037-0.367-0.043-0.55 0.023-0.095 0.034-0.2 0.039-0.3 0.057l-0.201 0.033c-0.045 7e-3 -0.063 0.04-0.039 0.078 0.048 0.074 0.106 0.133 0.204 0.144 0.083 9e-3 0.163 0.042 0.246 0.048 0.189 0.013 0.379 0.021 0.568 0.019 0.124-1e-3 0.249-0.022 0.371-0.044 0.089-0.016 0.175-0.054 0.264-0.068 0.693-0.115 1.333-0.391 1.971-0.665 0.425-0.184 0.841-0.391 1.251-0.604 0.775-0.402 1.516-0.863 2.219-1.381 0.322-0.237 0.63-0.491 0.946-0.735 0.032-0.024 0.042-0.044 0.03-0.085-0.015-0.049-0.016-0.103-0.023-0.156 0.08-0.034 0.148-0.075 0.238-0.04 0.091 0.036 0.188 0.059 0.284 0.083 0.079 0.02 0.159 0.03 0.238 0.05 0.114 0.027 0.118 0.03 0.152-0.085 0.083-0.277 0.16-0.557 0.238-0.836 7e-3 -0.024 5e-3 -0.053 8e-3 -0.087 0.016 8e-3 0.025 0.01 0.03 0.015 0.231 0.252 0.452 0.512 0.596 0.826 0.091 0.199 0.109 0.393 0.022 0.604-0.262 0.639-0.594 1.234-1.022 1.774-0.395 0.498-0.85 0.935-1.365 1.31-0.547 0.397-1.139 0.709-1.776 0.934-0.583 0.206-1.183 0.33-1.799 0.375-0.891 0.065-1.763-0.036-2.615-0.304-0.398-0.125-0.783-0.283-1.15-0.482-0.203-0.109-0.324-0.28-0.343-0.517-4e-3 -0.041-8e-3 -0.082-0.011-0.117z" style="fill:#000000"/>
	<path d="m6.42 5.818c0.04-0.069 0.081-0.13 0.111-0.194 0.021-0.046 0.027-0.099 0.039-0.147 4e-3 -0.016 0.011-0.031 0.013-0.048 1e-3 -0.012 0-0.032-7e-3 -0.037-0.051-0.035-0.052-0.034-0.013-0.072-0.07-0.025-0.089-0.058-0.087-0.132-0.043-0.02-0.085-0.031-0.116-0.055-0.116-0.093-0.228-0.192-0.344-0.285-0.082-0.065-0.168-0.126-0.25-0.191-0.106-0.085-0.208-0.173-0.313-0.259-0.134-0.108-0.27-0.214-0.403-0.324-0.048-0.04-0.086-0.092-0.147-0.116-0.011-5e-3 -0.012-0.033-0.017-0.051-0.073-7e-3 -0.129-0.063-0.136-0.14-0.02-3e-3 -0.04-5e-3 -0.06-8e-3l0.012-0.015c-0.027-0.022-0.053-0.046-0.082-0.064-0.018-0.012-0.05-9e-3 -0.059-0.022-0.062-0.103-0.175-0.149-0.251-0.232-0.102-0.11-0.198-0.228-0.281-0.352-0.036-0.054-0.038-0.134-0.048-0.203-0.011-0.084-0.028-0.164-0.08-0.235-0.018-0.025-0.028-0.057-0.039-0.086-0.02-0.055-3e-3 -0.097 0.043-0.131 0.399-0.294 0.823-0.545 1.274-0.75 0.512-0.231 1.045-0.399 1.596-0.502 0.571-0.107 1.147-0.14 1.727-0.102 0.96 0.063 1.87 0.315 2.726 0.754 0.697 0.357 1.316 0.819 1.856 1.387 0.587 0.618 1.049 1.319 1.379 2.106 0.198 0.472 0.341 0.959 0.434 1.462 0.027 0.146-0.02 0.279-0.081 0.406-0.13 0.271-0.311 0.507-0.52 0.721-0.267 0.273-0.542 0.539-0.817 0.804-0.093 0.089-0.198 0.165-0.299 0.245-0.148 0.119-0.247 0.273-0.327 0.442-6e-3 0.014-0.013 0.027-0.024 0.051-2.211-1.078-4.324-2.323-6.409-3.625z" style="fill:#000000"/>
</g>
</svg>
