<?xml version="1.0" standalone="no"?>
<!DOCTYPE svg PUBLIC "-//W3C//DTD SVG 20010904//EN"
 "http://www.w3.org/TR/2001/REC-SVG-20010904/DTD/svg10.dtd">
<svg version="1.0" xmlns="http://www.w3.org/2000/svg"
 width="1024.000000pt" height="1024.000000pt" viewBox="0 0 1024.000000 1024.000000"
 preserveAspectRatio="xMidYMid meet">
<metadata>
Created by potrace 1.11, written by Peter Selinger 2001-2013
</metadata>
<g transform="translate(0.000000,1024.000000) scale(0.100000,-0.100000)"
fill="#000000" stroke="none">
<path d="M0 5120 l0 -5120 5120 0 5120 0 0 5120 0 5120 -5120 0 -5120 0 0
-5120z m5665 5066 c663 -76 1223 -243 1790 -531 487 -248 902 -551 1295 -945
612 -613 1053 -1367 1290 -2203 46 -161 107 -428 116 -507 21 -188 -151 -487
-490 -853 -150 -162 -497 -491 -681 -645 -82 -69 -160 -137 -173 -151 -37 -41
-111 -156 -138 -216 -14 -30 -30 -55 -35 -55 -18 0 -798 396 -1134 575 -1043
557 -2161 1206 -3260 1893 -154 96 -282 176 -284 178 -2 2 7 21 21 42 66 100
102 201 120 340 9 66 9 98 2 110 -6 9 -9 28 -7 41 2 15 -3 28 -12 34 -12 6
-13 12 -5 22 8 9 8 15 0 20 -6 3 -8 11 -5 16 4 5 0 9 -7 9 -7 0 -21 14 -30 31
-10 16 -14 28 -9 25 4 -3 8 1 8 8 0 8 -6 12 -14 9 -7 -3 -13 0 -13 7 0 8 -9
11 -25 8 -22 -5 -23 -3 -13 10 11 13 10 15 -6 9 -13 -5 -17 -3 -13 7 4 10 -1
12 -16 9 -18 -3 -17 -1 6 12 30 18 32 21 15 31 -6 4 -8 3 -5 -3 4 -6 -5 -13
-22 -15 -21 -3 -28 -1 -24 9 4 9 0 11 -12 6 -15 -5 -17 -2 -13 15 7 24 -2 28
-20 10 -9 -9 -12 -9 -12 0 0 7 4 12 9 12 5 0 12 7 15 16 3 8 2 13 -3 9 -16
-10 -40 6 -35 23 4 12 0 10 -14 -5 -26 -29 -27 -29 -29 8 -3 42 -20 61 -43 49
-21 -11 -35 11 -18 28 6 6 1 8 -16 5 -22 -5 -25 -2 -20 13 5 15 4 16 -4 5 -11
-16 -5 -44 8 -36 5 3 12 1 15 -5 4 -7 -5 -10 -24 -8 -21 1 -27 6 -21 14 13 14
0 27 -14 14 -8 -6 -12 -2 -13 13 -2 18 0 19 8 7 9 -13 10 -13 6 0 -2 8 -12 17
-23 19 -25 4 -36 23 -21 34 8 6 6 7 -5 3 -12 -3 -18 0 -18 9 0 7 -4 17 -10 20
-5 3 -7 0 -5 -8 3 -7 -5 -22 -17 -32 -13 -11 -17 -13 -10 -5 14 16 16 34 3 26
-5 -3 -11 3 -14 15 -4 16 -3 18 8 9 13 -11 13 -8 6 29 -1 2 -7 -2 -14 -8 -8
-6 -18 -7 -22 -3 -5 4 -5 1 -1 -5 4 -7 2 -13 -3 -13 -6 0 -11 4 -11 9 0 6 -9
9 -20 8 -11 -1 -20 -7 -20 -14 0 -7 -4 -13 -10 -13 -15 0 -12 9 11 38 21 28
10 44 -16 22 -11 -9 -13 -7 -11 6 4 23 -23 54 -41 47 -8 -3 -13 0 -11 7 2 7
-4 14 -13 15 -10 2 -16 -4 -15 -14 1 -10 -7 -16 -19 -16 -13 0 -20 6 -19 18 2
16 -8 22 -30 18 -5 -1 -4 5 3 13 7 9 17 13 22 10 5 -3 6 2 3 10 -5 14 -9 13
-30 -1 -15 -9 -24 -11 -24 -4 0 6 5 11 11 11 5 0 7 5 4 10 -4 6 -11 8 -16 5
-5 -3 -6 0 -3 8 4 11 -1 13 -21 9 -22 -4 -26 -9 -22 -29 2 -13 0 -26 -5 -29
-5 -3 -7 -12 -4 -20 3 -8 0 -11 -10 -7 -11 4 -12 9 -5 16 18 18 12 44 -13 60
-17 12 -23 24 -22 48 0 18 -5 34 -12 37 -7 2 -12 0 -11 -5 3 -20 -2 -27 -11
-13 -8 13 -10 13 -10 1 0 -11 -4 -9 -14 4 -18 25 -10 40 12 23 15 -12 16 -11
3 5 -7 9 -18 17 -24 17 -5 0 -16 8 -24 18 -10 13 -13 13 -11 2 2 -8 7 -18 12
-21 5 -4 9 -22 10 -40 1 -32 11 -49 29 -49 5 0 6 4 3 9 -4 5 2 8 11 7 9 -2 19
-9 21 -17 3 -11 1 -11 -7 1 -7 10 -11 11 -11 3 0 -19 -46 -12 -59 9 -8 14 -8
18 1 18 9 0 9 3 1 11 -6 6 -9 19 -6 28 4 13 2 13 -10 -2 -11 -13 -17 -15 -22
-7 -4 7 -2 17 4 23 6 6 11 23 11 37 0 19 -5 26 -19 26 -11 0 -17 -5 -15 -11 3
-5 -2 -1 -10 9 -9 11 -16 14 -16 8 0 -7 -12 -12 -27 -11 -25 0 -26 1 -8 9 16
7 12 9 -18 7 -28 -1 -43 5 -60 23 -19 21 -19 22 -1 7 27 -23 41 -22 21 1 -10
10 -14 22 -10 26 4 4 -4 3 -17 -2 -19 -7 -28 -5 -37 7 -6 9 -15 13 -19 9 -4
-4 -1 -14 5 -22 9 -11 9 -16 -1 -22 -19 -12 -39 -14 -32 -3 3 5 9 7 14 4 5 -3
11 -1 14 4 4 5 2 12 -4 16 -17 11 -11 25 15 37 18 8 22 14 13 19 -6 4 -20 4
-29 -2 -13 -6 -21 -3 -32 15 -16 24 -18 23 28 28 19 2 19 1 -4 22 -14 13 -21
14 -27 5 -4 -7 -3 -10 4 -5 6 3 13 2 17 -4 5 -9 -9 -15 -18 -7 -2 1 -12 -5
-22 -13 -16 -14 -17 -13 -11 6 5 15 2 24 -9 28 -10 3 -13 11 -9 18 5 7 -14 -9
-41 -34 -27 -26 -52 -45 -57 -42 -11 7 -10 34 2 34 6 0 10 -5 10 -11 0 -8 4
-8 15 1 13 11 13 14 0 27 -9 8 -13 18 -10 23 3 5 1 11 -5 15 -6 3 -10 -3 -10
-16 0 -18 -2 -19 -15 -9 -13 11 -13 14 2 25 10 7 21 11 25 9 4 -2 9 0 13 6 4
6 9 8 13 6 4 -2 8 7 8 20 2 25 -3 28 -32 17 -16 -6 -16 -7 1 -13 16 -6 14 -9
-15 -23 -39 -20 -40 -20 -40 -7 0 6 6 9 13 8 19 -4 16 49 -4 71 -10 11 -15 21
-11 24 4 2 1 2 -6 1 -7 -2 -15 3 -19 11 -4 13 -8 13 -21 3 -13 -11 -15 -10
-10 9 10 39 -38 39 -72 -1 -11 -14 -9 -16 10 -16 13 0 24 8 27 20 8 30 20 24
25 -12 4 -25 -1 -38 -20 -57 -14 -15 -20 -18 -13 -9 10 14 9 19 -11 29 -31 18
-51 20 -59 7 -4 -7 -11 -3 -18 10 -9 18 -8 19 11 14 14 -3 19 -1 14 6 -4 7
-16 12 -27 12 -24 0 -54 26 -40 34 5 4 11 1 13 -6 2 -6 15 -13 28 -15 13 -2
27 -9 31 -15 6 -9 11 -8 23 1 9 7 13 18 10 23 -3 5 3 12 15 15 12 3 21 10 21
15 0 6 -11 3 -24 -6 -18 -11 -26 -12 -29 -3 -2 6 -8 9 -12 5 -4 -4 -2 -16 6
-25 13 -17 13 -17 -7 0 -11 9 -24 15 -27 12 -4 -3 -5 -2 -2 2 3 3 -2 18 -12
32 -14 22 -14 24 -1 13 12 -9 18 -10 23 -2 5 8 11 8 21 -1 12 -10 13 -9 8 5
-4 11 -13 15 -26 10 -14 -4 -18 -2 -14 5 11 17 -11 13 -29 -6 -14 -14 -15 -18
-4 -27 8 -6 15 -20 17 -31 2 -18 2 -19 -8 -2 -6 9 -16 15 -21 11 -13 -7 -39
27 -32 41 3 5 0 5 -7 -2 -16 -15 -40 9 -60 57 -7 17 -17 30 -22 30 -5 0 -7 4
-4 9 3 5 0 11 -7 14 -14 5 -42 113 -53 207 -4 38 -18 72 -41 109 -25 40 -35
67 -37 100 -1 42 1 46 49 83 89 70 356 244 495 323 664 378 1376 591 2200 659
119 9 704 -3 835 -18z m-3610 -1645 c181 -34 315 -63 314 -70 0 -3 -45 -44
-100 -91 -104 -88 -311 -295 -413 -413 l-59 -67 29 -42 c70 -100 437 -466 634
-631 47 -40 117 -100 155 -136 39 -35 125 -107 193 -160 67 -53 173 -135 235
-184 62 -48 111 -92 109 -98 -1 -6 2 -7 8 -4 13 8 52 -24 44 -36 -3 -5 2 -6
10 -3 8 3 24 -4 35 -15 12 -12 22 -20 24 -18 1 1 14 -9 27 -22 14 -13 19 -20
11 -16 -9 5 -12 4 -8 -3 4 -5 16 -8 26 -5 20 5 46 -28 33 -42 -4 -5 -1 -5 6
-1 7 4 10 12 7 17 -3 5 1 6 9 3 9 -3 13 -11 9 -17 -3 -6 -1 -7 5 -3 6 4 25 0
42 -9 16 -8 32 -15 35 -15 24 1 27 -3 8 -10 -21 -9 -22 -15 -25 -157 -9 -363
10 -2137 27 -2638 3 -82 10 -287 15 -455 24 -722 80 -1757 106 -1961 4 -26 2
-49 -2 -52 -5 -3 -41 3 -80 13 -75 19 -273 40 -314 34 -14 -3 -53 -13 -87 -24
-34 -11 -93 -24 -130 -30 -37 -5 -99 -16 -138 -25 -38 -9 -91 -19 -117 -22
-26 -3 -52 -11 -58 -18 -14 -17 -3 -59 21 -81 19 -17 27 -40 11 -30 -5 3 -9
-1 -9 -9 0 -13 4 -12 19 2 10 9 18 11 18 6 0 -13 67 -46 79 -39 5 3 14 -1 21
-10 7 -8 19 -13 25 -10 17 6 40 -25 39 -51 -1 -12 3 -20 7 -17 5 3 9 0 9 -5 0
-11 -1 -12 -35 -16 -11 -2 -26 -4 -34 -6 -7 -2 -16 2 -18 9 -3 6 0 12 7 12 6
0 8 -5 4 -12 -5 -7 -3 -8 5 -4 9 6 9 12 -3 25 -9 9 -13 26 -10 37 6 25 -23 41
-40 24 -8 -8 -6 -9 8 -4 19 7 19 7 1 -24 -19 -32 -50 -47 -62 -30 -3 7 -1 8 5
4 7 -4 12 -1 12 9 0 9 -4 13 -10 10 -22 -13 -31 7 -15 32 11 17 12 23 4 17 -7
-4 -27 -7 -44 -7 -25 1 -27 0 -7 -5 13 -4 23 -11 23 -17 1 -5 5 -16 11 -23 8
-9 7 -11 -7 -6 -10 4 -21 1 -26 -7 -7 -12 -12 -12 -31 0 -16 9 -19 9 -11 1 9
-10 7 -16 -9 -29 -19 -16 -19 -18 -3 -31 16 -14 17 -13 10 9 -5 17 -4 22 6 19
8 -3 15 -10 15 -16 1 -7 3 -15 4 -19 1 -5 2 -12 1 -16 -1 -5 3 -6 9 -2 8 5 7
11 -1 21 -10 12 -9 13 5 8 14 -5 16 -2 12 20 -4 20 -1 26 12 26 25 0 37 -12
38 -37 1 -17 -4 -23 -18 -23 -11 0 -26 -6 -33 -14 -12 -12 -12 -16 0 -26 12
-10 15 -9 15 8 0 16 4 20 17 15 11 -4 12 -8 5 -11 -7 -2 -12 -9 -12 -15 0 -7
-12 -17 -26 -24 -22 -10 -24 -10 -14 2 9 11 8 18 -4 31 -9 8 -13 20 -10 26 8
13 -37 0 -51 -14 -7 -7 -3 -9 12 -5 14 3 20 1 17 -7 -5 -13 -44 -16 -44 -3 0
4 5 17 11 29 15 27 1 38 -18 13 -12 -15 -14 -16 -10 -3 3 9 1 18 -4 20 -15 5
-48 107 -38 114 5 3 9 10 9 15 0 6 -4 8 -9 5 -14 -9 -21 20 -8 33 8 8 8 11 -1
11 -7 0 -12 15 -12 38 l0 39 -152 6 c-229 9 -381 48 -478 121 -100 76 -442
409 -550 536 -30 36 -59 70 -65 76 -36 40 -55 65 -55 74 0 6 -4 10 -8 10 -4 0
-26 24 -47 53 -22 28 -43 54 -47 55 -5 2 -8 9 -8 16 0 7 -13 25 -30 41 -16 15
-27 32 -24 37 3 4 1 8 -5 8 -11 0 -57 71 -53 83 1 5 -2 6 -7 3 -10 -6 -44 41
-44 61 0 7 -4 13 -8 13 -4 0 -18 17 -30 38 -13 20 -34 53 -46 72 -13 19 -26
42 -30 50 -3 8 -17 29 -29 45 -12 17 -35 55 -50 85 -15 30 -34 61 -41 68 -7 8
-11 17 -8 22 3 4 -2 11 -11 14 -9 3 -14 12 -11 20 3 7 -3 20 -14 29 -10 9 -19
25 -19 34 0 10 -9 29 -20 43 -11 14 -20 30 -20 36 0 15 -38 92 -49 99 -5 3
-15 22 -21 43 -15 47 -56 144 -85 202 -12 25 -26 59 -30 75 -5 17 -10 37 -12
45 -2 8 -5 21 -5 28 -1 6 -5 12 -9 12 -4 0 -12 14 -18 30 -8 24 -7 29 2 25 7
-4 5 -1 -3 7 -16 14 -23 33 -22 60 0 10 -4 20 -9 23 -5 4 -7 11 -4 16 4 5 1 9
-5 9 -6 0 -10 6 -8 13 1 6 -4 23 -11 35 -7 13 -11 26 -8 28 3 3 -3 22 -13 42
-10 20 -14 39 -10 42 5 3 5 12 0 20 -6 8 -10 11 -11 5 -1 -15 -40 137 -40 158
0 9 -4 17 -9 17 -8 0 -26 92 -23 120 1 8 -4 18 -10 22 -9 6 -8 8 2 8 10 0 11
3 2 14 -6 8 -11 18 -10 22 2 5 -3 29 -10 54 -7 25 -15 59 -17 75 -1 17 -7 44
-12 60 -5 17 -7 36 -5 43 3 6 -1 12 -9 13 -7 0 -4 4 7 9 16 7 17 9 3 9 -13 1
-16 9 -13 41 2 22 0 40 -3 40 -4 0 -8 21 -8 46 -1 27 -7 50 -15 55 -11 7 -9 9
6 10 17 1 17 2 2 6 -19 5 -24 43 -4 43 9 0 8 3 -2 9 -7 5 -13 20 -12 35 2 31
2 36 -3 102 -1 28 -6 56 -10 62 -4 7 -1 12 6 12 8 0 9 3 3 8 -6 4 -10 32 -10
62 1 30 -1 59 -4 64 -8 16 -7 120 1 139 6 10 5 17 -2 17 -15 0 -12 30 3 31 9
0 9 2 0 6 -7 2 -13 16 -13 29 0 17 4 23 12 18 8 -5 8 -3 2 7 -13 20 -12 92 1
101 6 5 6 8 -2 8 -7 0 -13 8 -13 18 0 14 2 15 10 2 6 -9 10 -10 10 -3 0 6 -5
15 -10 18 -6 4 -8 10 -5 15 3 5 8 62 10 127 7 150 14 222 30 333 2 14 9 65 15
114 6 49 13 93 15 96 3 4 7 25 10 46 21 164 102 478 187 728 199 591 502 1129
918 1630 87 104 133 135 232 156 75 16 439 4 563 -19z m519 -60 c20 -21 24
-30 14 -34 -11 -5 -11 -7 0 -15 11 -7 10 -10 -3 -16 -26 -10 -35 -7 -35 10 0
8 4 13 9 10 5 -3 12 1 15 10 10 26 0 28 -23 5 -12 -12 -21 -16 -21 -10 0 5 -5
7 -10 4 -8 -5 -8 -11 -1 -19 8 -9 7 -13 -3 -13 -17 0 -15 22 5 45 8 9 13 25
11 35 -5 25 11 21 42 -12z m-118 -12 c3 -6 2 -15 -4 -21 -6 -6 -12 -6 -17 3
-5 8 -4 10 3 5 7 -4 12 -3 12 3 0 5 -6 12 -12 14 -10 4 -10 6 -1 6 6 1 15 -4
19 -10z m110 -82 c4 -4 0 -7 -9 -7 -9 0 -18 4 -21 9 -7 10 20 9 30 -2z m18
-36 c3 -5 0 -11 -8 -14 -15 -6 -26 1 -26 15 0 11 27 10 34 -1z m127 -34 c-8
-8 -11 -7 -11 4 0 20 13 34 18 19 3 -7 -1 -17 -7 -23z m-111 3 c0 -5 -2 -10
-4 -10 -3 0 -8 5 -11 10 -3 6 -1 10 4 10 6 0 11 -4 11 -10z m154 -44 c-3 -8
-15 -17 -27 -20 -21 -5 -20 -4 3 14 30 24 31 24 24 6z m26 -26 c0 -5 -5 -10
-11 -10 -6 0 -8 -7 -5 -16 5 -14 4 -15 -8 -5 -12 10 -13 16 -3 26 14 17 27 19
27 5z m-53 -16 c-3 -3 -12 -4 -19 -1 -8 3 -5 6 6 6 11 1 17 -2 13 -5z m132
-57 c0 -9 -2 -8 -6 1 -2 6 -10 9 -15 6 -7 -4 -8 -2 -4 5 9 13 26 5 25 -12z
m56 -26 c3 -5 0 -13 -6 -17 -7 -4 -9 -3 -5 4 3 5 0 13 -6 15 -9 4 -10 6 -1 6
6 1 14 -3 18 -8z m105 -9 c0 6 3 8 7 5 3 -4 -2 -16 -13 -28 -10 -12 -18 -23
-16 -25 1 -2 0 -4 -3 -4 -3 0 -10 0 -16 0 -6 0 -3 7 5 16 20 19 21 28 3 21 -8
-3 -14 1 -14 8 0 10 7 11 24 4 16 -6 23 -5 23 3z m-153 -59 c-8 -7 -37 9 -31
19 3 5 12 4 20 -3 8 -6 13 -14 11 -16z m43 -33 c0 -5 -5 -10 -11 -10 -5 0 -7
5 -4 10 3 6 8 10 11 10 2 0 4 -4 4 -10z m204 -71 c-3 -5 -10 -7 -15 -3 -5 3
-7 10 -3 15 3 5 10 7 15 3 5 -3 7 -10 3 -15z m130 -5 c3 -8 2 -12 -4 -9 -6 3
-10 10 -10 16 0 14 7 11 14 -7z m-60 -9 c3 -8 1 -15 -4 -15 -6 0 -10 7 -10 15
0 8 2 15 4 15 2 0 6 -7 10 -15z m38 -67 c-6 -6 -7 0 -4 19 5 21 7 23 10 9 2
-10 0 -22 -6 -28z m-101 9 c-10 -9 -11 -8 -5 6 3 10 9 15 12 12 3 -3 0 -11 -7
-18z m278 -34 c-12 -15 -12 -16 2 -11 9 4 16 1 16 -7 0 -7 -8 -10 -19 -7 -21
5 -23 17 -5 36 17 20 23 10 6 -11z m-88 -5 c11 -21 11 -22 -4 -9 -10 7 -17 17
-17 22 0 15 9 10 21 -13z m49 2 c-12 -22 -21 -26 -17 -7 2 10 17 26 25 27 1 0
-2 -9 -8 -20z m-51 -43 c-2 -3 -15 10 -28 27 l-24 31 28 -27 c16 -15 27 -29
24 -31z m32 0 c-1 -4 -1 -14 -1 -22 0 -8 -3 -15 -7 -15 -5 0 -8 11 -8 25 0 14
4 24 8 22 5 -1 8 -6 8 -10z m92 -61 c4 -10 1 -13 -8 -9 -8 3 -12 9 -9 14 7 12
11 11 17 -5z m-38 -6 c3 -6 -1 -7 -9 -4 -18 7 -21 14 -7 14 6 0 13 -4 16 -10z
m123 -25 c-3 -3 -9 2 -12 12 -6 14 -5 15 5 6 7 -7 10 -15 7 -18z m82 5 c0 -5
-4 -10 -9 -10 -6 0 -13 5 -16 10 -3 6 1 10 9 10 9 0 16 -4 16 -10z m-31 -79
c-2 -6 -10 2 -17 17 -11 25 -11 25 4 10 9 -9 15 -21 13 -27z m51 -11 c13 -8
13 -10 -2 -10 -9 0 -20 5 -23 10 -8 13 5 13 25 0z m85 -10 c3 -5 1 -10 -4 -10
-6 0 -11 5 -11 10 0 6 2 10 4 10 3 0 8 -4 11 -10z m69 -16 c24 -24 19 -30 -6
-8 -13 10 -25 20 -27 21 -2 2 1 3 7 3 6 0 18 -7 26 -16z m-10 -42 c3 -5 -1 -9
-9 -9 -8 0 -12 4 -9 9 3 4 7 8 9 8 2 0 6 -4 9 -8z m36 -87 c0 -8 -2 -15 -4
-15 -2 0 -6 7 -10 15 -3 8 -1 15 4 15 6 0 10 -7 10 -15z m65 -55 c-3 -5 -14
-10 -23 -9 -14 0 -13 2 3 9 27 11 27 11 20 0z m5625 -3192 c225 -249 379 -493
424 -669 27 -111 22 -175 -26 -297 -228 -587 -569 -1136 -984 -1587 -442 -480
-926 -844 -1504 -1130 -69 -34 -159 -77 -200 -94 -41 -18 -88 -39 -105 -46
-96 -43 -368 -137 -560 -193 -219 -65 -604 -139 -815 -156 -36 -3 -74 -8 -85
-10 -11 -2 -76 -7 -145 -10 -69 -4 -138 -10 -154 -13 -21 -4 -26 -2 -21 7 6 9
3 9 -11 2 -19 -10 -344 -12 -344 -2 0 3 -33 5 -73 5 -67 1 -273 13 -307 19 -8
1 -48 6 -88 10 -40 5 -75 12 -78 17 -2 4 -11 6 -19 2 -8 -3 -23 -2 -32 2 -10
4 -36 9 -57 11 -42 3 -180 31 -206 41 -8 3 -21 5 -28 4 -7 -1 -28 2 -45 8 -18
5 -49 12 -70 16 -21 3 -47 10 -58 15 -10 6 -19 9 -19 6 0 -3 -39 7 -87 21 -49
13 -106 30 -128 36 -22 7 -43 15 -46 20 -3 4 -10 7 -15 5 -13 -3 -143 42 -150
53 -3 5 -9 7 -14 4 -8 -5 -217 72 -262 97 -13 6 -28 13 -35 14 -7 1 -43 17
-80 34 -37 18 -78 36 -91 41 -13 5 -20 14 -16 20 4 8 8 8 13 0 7 -11 190 -46
198 -37 3 3 -2 17 -11 32 -10 14 -15 28 -12 32 3 3 6 0 6 -6 0 -6 7 -9 17 -5
11 4 14 3 9 -5 -11 -18 3 -51 22 -51 9 0 55 -3 101 -6 64 -5 86 -3 92 7 7 10
9 10 9 1 0 -7 5 -13 11 -13 5 0 7 6 3 13 -6 9 -4 9 7 1 8 -6 23 -10 34 -9 11
2 67 6 124 9 57 3 108 9 115 13 6 4 20 6 31 5 33 -4 300 47 303 58 2 6 8 8 13
5 14 -9 71 24 63 37 -4 7 -3 8 5 4 7 -4 15 2 20 16 6 13 10 19 10 15 1 -5 6
-5 11 -2 8 5 7 12 -2 23 -10 12 -10 14 0 8 14 -9 17 2 13 70 -1 16 -5 23 -13
18 -6 -4 -8 -3 -5 3 8 13 -19 70 -40 81 -8 5 -14 13 -13 18 1 5 -4 10 -11 13
-7 2 -9 -1 -4 -9 5 -8 4 -11 -3 -6 -6 4 -9 13 -6 20 3 8 -14 29 -40 51 -25 21
-46 40 -46 44 0 4 48 19 108 35 152 40 575 182 782 261 1145 441 2394 1154
3389 1938 278 218 333 267 327 291 -4 12 -9 46 -12 76 l-6 55 50 21 50 22 89
-20 c48 -10 129 -32 178 -48 50 -16 113 -31 140 -35 28 -4 67 -13 87 -21 24
-9 39 -10 43 -3 6 9 71 196 80 229 3 8 20 68 39 133 20 64 48 178 63 252 15
74 30 135 33 135 3 0 34 -33 70 -72z m-6546 -3325 c3 -8 11 -11 17 -7 8 5 9 3
4 -6 -6 -9 0 -11 24 -5 20 4 31 3 31 -5 0 -6 -4 -8 -10 -5 -5 3 -10 1 -10 -4
0 -15 13 -14 36 5 10 8 13 12 5 8 -9 -4 -12 -3 -8 3 4 6 16 13 27 16 17 4 18
2 9 -14 -5 -10 -7 -19 -3 -19 3 0 1 -7 -6 -15 -12 -15 -10 -17 20 -19 10 -1
15 -12 14 -36 -1 -19 5 -41 13 -48 8 -8 12 -21 9 -28 -3 -8 -1 -14 5 -14 15 0
23 30 10 43 -6 6 -11 15 -11 20 0 5 7 2 15 -7 8 -8 15 -22 15 -30 0 -9 8 -16
18 -16 16 -1 16 -1 0 -10 -9 -6 -15 -19 -13 -29 2 -13 -2 -18 -13 -16 -9 2
-19 4 -21 4 -2 1 4 10 13 20 18 19 17 20 -10 17 -30 -3 -66 13 -58 25 2 4 -11
6 -29 5 -26 -1 -32 3 -30 19 1 17 -1 17 -18 -5 l-20 -25 3 24 c4 30 38 38 45
10 3 -10 12 -19 20 -19 12 0 13 3 3 15 -6 8 -8 20 -4 26 5 8 3 9 -6 4 -10 -6
-12 -4 -7 9 5 14 3 17 -8 13 -8 -4 -17 -2 -20 4 -4 5 -11 6 -17 3 -6 -4 -5
-10 3 -16 9 -6 5 -7 -12 -2 -15 3 -30 1 -33 -5 -4 -6 -12 -11 -17 -11 -6 0 -8
4 -4 9 3 5 1 13 -5 16 -6 4 -9 1 -8 -7 2 -7 -3 -12 -9 -10 -7 1 -13 -2 -13 -7
0 -6 -9 -9 -19 -8 -11 0 -17 5 -15 9 3 5 10 6 15 3 5 -4 9 -1 9 4 0 6 -4 11
-10 11 -5 0 -10 5 -10 11 0 5 5 7 10 4 6 -3 10 0 10 7 0 10 2 11 8 0 7 -10 15
-8 36 9 15 12 30 19 33 16 8 -9 -7 -28 -18 -22 -5 4 -9 1 -9 -4 0 -14 17 -14
25 -1 4 6 11 7 17 4 6 -4 14 0 19 7 6 10 11 11 17 3 10 -15 52 -28 52 -15 0
18 -12 41 -22 41 -6 0 -5 -6 2 -15 10 -12 10 -15 -4 -15 -9 0 -16 5 -16 10 0
6 -12 10 -26 10 -14 0 -23 4 -20 9 3 5 -1 14 -9 21 -10 9 -15 9 -15 1 0 -6 5
-11 12 -11 6 0 9 -3 5 -6 -8 -8 -47 6 -47 17 0 6 6 7 13 3 10 -6 10 -4 0 7
-17 17 -16 26 2 26 8 0 17 -7 19 -14z m-124 -38 c-8 -42 -9 -42 -15 -11 -3 15
15 60 21 53 1 -1 -2 -20 -6 -42z m760 23 c0 -6 6 -8 13 -5 7 3 12 -5 12 -20
l0 -24 -22 28 c-20 25 -28 25 -24 0 1 -4 -8 -2 -19 5 l-21 13 21 3 c11 2 18 8
15 13 -3 5 1 6 9 3 9 -3 16 -11 16 -16z m170 16 c0 -8 -19 -13 -24 -6 -3 5 1
9 9 9 8 0 15 -2 15 -3z m-606 -17 c3 3 6 1 6 -5 0 -7 -4 -12 -9 -12 -6 0 -8
-9 -6 -19 2 -11 -3 -25 -11 -32 -12 -10 -14 -8 -12 12 2 18 -1 23 -14 21 -10
-2 -18 1 -18 6 0 16 13 22 27 11 17 -14 17 2 1 20 -11 11 -9 12 8 3 12 -6 24
-8 28 -5z m54 -13 c18 -3 42 -24 42 -38 0 -6 -4 -5 -9 3 -7 10 -13 11 -30 2
-11 -7 -21 -9 -21 -5 0 3 -6 2 -12 -4 -10 -8 -13 -4 -14 14 -1 13 2 24 8 24 5
0 6 5 2 12 -5 7 -3 8 7 2 8 -4 20 -9 27 -10z m67 6 c-3 -6 4 -10 17 -11 13 0
17 -3 11 -6 -7 -2 -13 -9 -13 -14 0 -4 6 -6 14 -3 25 10 29 -17 7 -47 -12 -16
-17 -29 -11 -29 5 0 10 -5 10 -12 0 -9 -3 -9 -11 -1 -16 16 -51 4 -44 -16 5
-11 1 -10 -13 4 -15 16 -16 22 -6 32 15 15 28 17 19 3 -3 -5 -2 -10 4 -10 28
0 35 64 9 87 -14 13 -16 18 -6 25 17 10 20 10 13 -2z m178 -40 c3 -12 0 -17
-9 -13 -7 2 -10 11 -7 19 3 8 -1 14 -11 14 -9 0 -15 -4 -13 -9 1 -5 -2 -9 -8
-10 -8 -1 -11 21 -6 44 2 12 49 -27 54 -45z m-94 0 c1 19 4 21 13 12 10 -9 9
-16 -4 -28 -15 -15 -17 -15 -27 5 -7 12 -8 27 -4 34 5 8 10 2 14 -18 6 -26 7
-27 8 -5z m166 20 c3 -5 1 -10 -4 -10 -6 0 -11 5 -11 10 0 6 2 10 4 10 3 0 8
-4 11 -10z m282 -18 c-2 -35 -19 -37 -34 -5 -10 21 -10 23 2 13 12 -10 16 -9
21 4 9 24 13 19 11 -12z m-1001 -6 c-2 -17 1 -23 10 -19 8 3 14 0 14 -7 0 -6
5 -8 10 -5 6 3 10 0 10 -8 0 -7 -7 -14 -15 -14 -8 0 -15 5 -15 11 0 6 -4 4 -9
-4 -14 -20 -3 -32 22 -24 19 6 20 5 10 -8 -7 -8 -11 -17 -8 -20 3 -3 -4 -13
-14 -22 -24 -21 -66 -13 -57 11 4 11 2 13 -9 9 -9 -3 -15 0 -15 9 0 17 16 20
25 5 3 -5 12 -7 20 -4 19 8 15 43 -6 55 -18 9 -19 44 -1 44 6 0 14 3 18 8 11
11 12 9 10 -17z m674 9 c0 -8 -2 -15 -4 -15 -2 0 -6 7 -10 15 -3 8 -1 15 4 15
6 0 10 -7 10 -15z m-780 1 c0 -11 -19 -15 -25 -6 -3 5 1 10 9 10 9 0 16 -2 16
-4z m865 -6 c-3 -5 -14 -10 -23 -9 -14 0 -13 2 3 9 27 11 27 11 20 0z m-348
-17 c-4 -3 -1 -13 5 -22 10 -13 10 -14 -2 -4 -15 14 -55 -1 -45 -18 9 -13 -9
-11 -23 3 -18 18 -15 27 7 23 11 -2 25 3 32 11 6 8 16 14 22 14 6 0 7 -3 4 -7z
m203 -12 c8 12 11 12 22 0 8 -9 9 -11 1 -7 -6 3 -14 2 -18 -4 -10 -15 -32 -12
-39 6 -6 14 -4 15 10 4 13 -12 17 -11 24 1z m106 -18 c-9 -19 -12 -20 -17 -5
-5 14 -7 14 -17 -3 -6 -11 -12 -17 -12 -12 0 17 23 43 39 43 14 0 15 -4 7 -23z
m75 10 c11 -15 11 -16 -1 -5 -18 15 -34 16 -24 0 4 -7 3 -8 -5 -4 -12 8 -6 26
8 26 5 0 15 -8 22 -17z m107 -8 c-3 -3 -9 2 -12 12 -6 14 -5 15 5 6 7 -7 10
-15 7 -18z m-365 2 c3 -8 -1 -14 -8 -14 -7 0 -11 6 -8 14 3 7 6 13 8 13 2 0 5
-6 8 -13z m327 -2 c0 -8 -4 -15 -10 -15 -5 0 -7 7 -4 15 4 8 8 15 10 15 2 0 4
-7 4 -15z m-700 -14 c0 -6 -5 -13 -11 -16 -15 -10 21 -47 38 -40 8 3 11 0 8
-6 -4 -6 2 -9 17 -7 12 2 23 -1 23 -7 0 -5 -14 -10 -32 -10 -17 0 -35 -3 -39
-7 -3 -4 -18 2 -33 13 -24 19 -26 19 -38 3 -7 -10 -13 -13 -13 -8 0 6 3 14 7
18 13 13 11 36 -3 36 -14 0 -17 -9 -16 -47 1 -13 -3 -23 -9 -23 -6 0 -7 -5 -4
-10 10 -16 -18 -7 -32 10 -13 18 1 42 21 34 7 -3 13 2 13 10 0 8 -4 13 -8 10
-15 -9 -18 14 -4 26 11 9 15 9 15 1 0 -9 5 -9 20 -1 13 7 20 7 20 1 0 -7 9 -7
25 1 13 6 22 15 19 19 -3 5 0 9 5 9 6 0 11 -4 11 -9z m467 -18 c-10 -22 -13
-24 -15 -9 -2 10 2 22 10 27 19 12 19 12 5 -18z m320 12 c0 -17 -7 -18 -34 -8
-16 6 -15 8 7 14 14 4 25 7 26 8 0 1 1 -6 1 -14z m-164 -4 c18 -7 18 -8 1 -21
-10 -8 -15 -10 -11 -3 4 7 0 16 -10 22 -20 12 -7 13 20 2z m82 -11 c-3 -4 -14
-10 -25 -13 -16 -4 -19 -2 -11 7 11 13 43 18 36 6z m-328 -25 c0 -8 -4 -12 -9
-9 -5 3 -6 10 -3 15 9 13 12 11 12 -6z m56 -11 c-4 -12 -8 -13 -14 -3 -9 15
-2 32 11 24 5 -3 6 -13 3 -21z m87 11 c0 -8 -4 -15 -10 -15 -5 0 -7 7 -4 15 4
8 8 15 10 15 2 0 4 -7 4 -15z m435 6 c3 -5 2 -12 -3 -15 -5 -3 -9 1 -9 9 0 17
3 19 12 6z m-395 -5 c0 -11 -19 -15 -25 -6 -3 5 1 10 9 10 9 0 16 -2 16 -4z
m80 -10 c0 -8 -7 -16 -15 -20 -12 -4 -13 -2 -2 14 14 24 17 25 17 6z m-390 -6
c0 -5 -5 -10 -11 -10 -5 0 -7 5 -4 10 3 6 8 10 11 10 2 0 4 -4 4 -10z m83 -9
c-12 -9 -14 -31 -3 -31 6 0 10 -4 10 -10 0 -5 -12 -10 -27 -9 -19 0 -23 3 -13
7 20 9 20 37 0 37 -8 0 -14 -6 -12 -14 3 -12 0 -12 -12 -2 -15 13 -12 36 3 27
4 -3 13 -1 21 4 15 9 47 1 33 -9z m367 3 c0 -2 -7 -4 -15 -4 -8 0 -15 4 -15
10 0 5 7 7 15 4 8 -4 15 -8 15 -10z m81 -1 c13 -16 12 -17 -3 -4 -17 13 -22
21 -14 21 2 0 10 -8 17 -17z m-1014 -16 c-2 -7 3 -18 12 -25 14 -11 13 -12 -6
-3 -16 8 -23 8 -27 -2 -2 -6 -3 -1 -1 13 2 14 4 29 4 33 1 5 6 5 12 2 5 -4 8
-12 6 -18z m700 8 c0 -6 -6 -12 -14 -12 -7 0 -13 6 -13 12 0 6 6 12 13 12 8 0
14 -6 14 -12z m101 -10 c1 -14 -2 -25 -6 -25 -7 0 -8 31 -3 48 3 8 7 -2 9 -23z
m-31 -7 c-3 -8 -6 -5 -6 6 -1 11 2 17 5 13 3 -3 4 -12 1 -19z m-567 -8 c19
-19 19 -20 -11 -16 -33 4 -52 16 -25 16 9 0 14 5 11 10 -10 17 4 11 25 -10z
m396 -7 c-7 -7 -26 7 -26 19 0 6 6 6 15 -2 9 -7 13 -15 11 -17z m334 17 c0 -5
-2 -10 -4 -10 -3 0 -8 5 -11 10 -3 6 -1 10 4 10 6 0 11 -4 11 -10z m-647 -27
c5 -26 4 -26 -9 -8 -16 22 -18 35 -5 35 5 0 11 -12 14 -27z m64 16 c-18 -10
-18 -12 0 -32 l18 -22 -22 19 c-18 15 -20 22 -12 33 6 7 17 13 23 13 6 0 3 -5
-7 -11z m298 2 c3 -5 2 -12 -3 -15 -5 -3 -9 1 -9 9 0 17 3 19 12 6z m79 1 c3
-5 -1 -9 -9 -9 -8 0 -12 4 -9 9 3 4 7 8 9 8 2 0 6 -4 9 -8z m136 -12 c6 -11 8
-20 6 -20 -3 0 -10 9 -16 20 -6 11 -8 20 -6 20 3 0 10 -9 16 -20z m-550 -6 c0
-8 -4 -12 -10 -9 -5 3 -10 10 -10 16 0 5 5 9 10 9 6 0 10 -7 10 -16z m150 7
c0 -6 -5 -13 -11 -16 -6 -4 -8 -13 -5 -20 6 -17 -20 -13 -37 5 -10 12 -9 12 4
2 14 -10 18 -9 24 5 5 10 7 21 7 26 -1 4 3 7 8 7 6 0 10 -4 10 -9z m-370 -22
c0 -12 -17 -11 -25 1 -5 8 -12 7 -23 -2 -15 -11 -15 -11 -4 3 13 17 52 15 52
-2z m411 -16 c-6 -11 -11 -13 -11 -5 0 7 -5 10 -12 6 -7 -4 -8 -3 -4 5 4 6 12
9 17 6 5 -4 9 2 10 12 0 10 3 13 5 6 3 -7 1 -20 -5 -30z m178 6 c-5 -10 -15
-21 -22 -25 -8 -6 -8 -3 1 9 8 9 11 20 8 25 -3 5 1 9 9 9 10 0 11 -5 4 -18z
m-553 -13 c1 -7 -4 -13 -12 -13 -9 0 -11 4 -4 12 5 7 8 15 5 18 -3 4 -2 5 2 2
4 -3 8 -11 9 -19z m82 -1 c-3 -3 -9 2 -12 12 -6 14 -5 15 5 6 7 -7 10 -15 7
-18z m387 5 c3 -6 -1 -7 -9 -4 -18 7 -21 14 -7 14 6 0 13 -4 16 -10z m135 -14
c0 -11 -19 -15 -25 -6 -3 5 1 10 9 10 9 0 16 -2 16 -4z m-531 -36 c11 -24 11
-24 -3 -6 -9 11 -16 24 -16 30 0 12 5 7 19 -24z m541 6 c0 -11 -19 -15 -25 -6
-3 5 1 10 9 10 9 0 16 -2 16 -4z m-420 -11 c0 -1 -9 -10 -19 -19 -19 -17 -19
-17 -16 1 2 10 4 18 4 19 2 2 31 1 31 -1z m355 -4 c3 -5 2 -12 -3 -15 -5 -3
-9 1 -9 9 0 17 3 19 12 6z m124 -1 c-6 -5 -18 -6 -26 -3 -19 8 -16 11 13 11
17 0 22 -3 13 -8z m-74 -58 c-3 -3 -11 0 -18 7 -9 10 -8 11 6 5 10 -3 15 -9
12 -12z m114 9 c10 -7 7 -9 -12 -8 -14 1 -23 5 -20 10 6 9 15 9 32 -2z"/>
<path d="M2290 8796 c0 -2 7 -7 16 -10 8 -3 12 -2 9 4 -6 10 -25 14 -25 6z"/>
<path d="M2256 8711 c-4 -5 -2 -20 3 -33 9 -21 9 -20 8 9 -2 36 -3 38 -11 24z"/>
<path d="M2306 8701 c-10 -11 -16 -27 -14 -37 3 -16 4 -16 18 1 9 11 10 16 3
11 -7 -4 -13 -2 -13 3 0 6 7 11 15 11 8 0 15 -9 15 -20 0 -11 -4 -20 -10 -20
-5 0 -10 -4 -10 -10 0 -5 6 -9 13 -7 7 1 11 -6 9 -18 -4 -17 -2 -17 16 5 11
13 17 31 14 39 -4 10 -1 12 8 6 9 -5 11 -4 6 3 -4 7 -14 12 -22 12 -8 0 -13 4
-10 9 3 5 0 14 -8 20 -10 8 -17 6 -30 -8z"/>
<path d="M2530 8576 c0 -8 4 -17 9 -20 5 -4 7 3 4 14 -6 23 -13 26 -13 6z"/>
<path d="M2491 8503 c-1 -7 -9 -10 -18 -7 -16 5 -16 4 0 -6 21 -13 32 -8 24
12 -4 9 -6 9 -6 1z"/>
<path d="M2680 8406 c0 -14 -11 -20 -32 -17 -4 0 -5 -6 -1 -15 3 -8 11 -13 19
-10 7 3 15 0 18 -7 3 -7 5 -3 3 8 -1 11 2 25 6 32 4 6 3 14 -3 18 -5 3 -10 -1
-10 -9z"/>
<path d="M2746 8381 c-4 -5 -2 -12 3 -15 5 -4 12 -2 15 3 4 5 2 12 -3 15 -5 4
-12 2 -15 -3z"/>
<path d="M2776 8296 c3 -8 12 -12 20 -9 21 8 17 23 -6 23 -13 0 -18 -5 -14
-14z"/>
<path d="M2838 8268 c-11 -11 -13 -20 -7 -24 6 -3 17 2 25 12 9 11 12 12 8 4
-7 -13 -5 -13 9 -1 21 17 21 18 0 23 -10 2 -26 -4 -35 -14z"/>
<path d="M2894 8236 c-4 -9 -1 -22 5 -30 6 -7 8 -16 4 -20 -4 -4 0 -4 8 -1 11
4 14 14 11 31 -6 30 -20 40 -28 20z"/>
<path d="M3179 8053 c-1 -4 0 -16 1 -27 1 -12 -2 -16 -11 -11 -8 5 -10 4 -5
-3 10 -17 24 -15 35 6 6 12 5 21 -5 30 -8 7 -15 9 -15 5z"/>
<path d="M3327 7925 c-8 -20 -4 -29 11 -24 5 2 6 13 2 23 -6 19 -7 19 -13 1z"/>
<path d="M3671 7714 c0 -11 3 -14 6 -6 3 7 2 16 -1 19 -3 4 -6 -2 -5 -13z"/>
<path d="M2600 995 c0 -7 30 -13 34 -7 3 4 -4 9 -15 9 -10 1 -19 0 -19 -2z"/>
<path d="M2650 980 c-13 -9 -13 -10 0 -10 13 0 13 -1 0 -11 -12 -8 -12 -10 -1
-7 8 2 15 12 17 21 3 20 3 19 -16 7z"/>
<path d="M2600 949 c0 -5 5 -7 10 -4 6 3 10 8 10 11 0 2 -4 4 -10 4 -5 0 -10
-5 -10 -11z"/>
<path d="M2568 933 c7 -3 16 -2 19 1 4 3 -2 6 -13 5 -11 0 -14 -3 -6 -6z"/>
<path d="M2614 928 c-4 -7 -4 -10 1 -6 4 4 13 4 19 -1 18 -14 48 -22 41 -11
-3 6 -13 10 -21 10 -8 0 -12 5 -9 10 3 6 -1 10 -9 10 -8 0 -18 -6 -22 -12z"/>
<path d="M2869 935 c-1 -3 -2 -8 -3 -12 -1 -5 -5 -14 -9 -21 -6 -8 -4 -12 5
-10 7 2 12 -3 10 -10 -1 -8 2 -11 7 -7 7 3 7 15 1 29 -5 13 -6 27 -3 30 4 3 3
6 0 6 -4 0 -8 -2 -8 -5z"/>
<path d="M2775 909 c-4 -6 -5 -12 -2 -15 2 -3 7 2 10 11 7 17 1 20 -8 4z"/>
<path d="M2586 891 c-22 -24 -15 -38 16 -36 21 2 40 25 19 25 -6 0 -8 7 -5 15
9 21 -10 19 -30 -4z"/>
<path d="M2717 864 c-4 -4 -7 -14 -7 -23 0 -11 3 -12 11 -4 6 6 10 16 7 23 -2
6 -7 8 -11 4z"/>
<path d="M3058 813 c10 -4 9 -8 -3 -17 -14 -10 -14 -12 5 -13 11 -1 18 2 15 8
-4 5 0 9 7 9 9 0 9 3 -2 10 -8 5 -19 9 -25 9 -5 0 -4 -3 3 -6z"/>
<path d="M3080 756 c0 -8 5 -18 12 -22 7 -4 8 -3 4 4 -4 7 -2 12 4 12 6 0 8 5
5 10 -9 15 -25 12 -25 -4z"/>
<path d="M3170 878 c0 -4 7 -8 15 -8 8 0 15 4 15 8 0 5 -7 9 -15 9 -8 0 -15
-4 -15 -9z"/>
<path d="M3287 840 c-3 -11 -2 -20 3 -20 4 0 10 9 13 20 3 11 2 20 -3 20 -4 0
-10 -9 -13 -20z"/>
<path d="M2785 762 c-18 -13 -16 -34 2 -30 10 2 19 11 21 21 4 18 -6 22 -23 9z"/>
<path d="M2905 761 c-6 -11 9 -23 19 -14 9 9 7 23 -3 23 -6 0 -12 -4 -16 -9z"/>
<path d="M2955 729 c-9 -14 -2 -20 14 -10 8 6 9 11 3 15 -6 3 -14 1 -17 -5z"/>
</g>
</svg>
